<?xml version="1.0" encoding="UTF-8" standalone="no"?>
<!-- Created with Inkscape (http://www.inkscape.org/) -->

<svg
   xmlns:dc="http://purl.org/dc/elements/1.1/"
   xmlns:cc="http://creativecommons.org/ns#"
   xmlns:rdf="http://www.w3.org/1999/02/22-rdf-syntax-ns#"
   xmlns:svg="http://www.w3.org/2000/svg"
   xmlns="http://www.w3.org/2000/svg"
   xmlns:sodipodi="http://sodipodi.sourceforge.net/DTD/sodipodi-0.dtd"
   xmlns:inkscape="http://www.inkscape.org/namespaces/inkscape"
   width="122.83326mm"
   height="141.11111mm"
   viewBox="0 0 435.23596 500.00001"
   id="svg2"
   version="1.1"
   inkscape:version="0.91 r13725"
   sodipodi:docname="kol.svg">
  <defs
     id="defs4" />
  <sodipodi:namedview
     id="base"
     pagecolor="#ffffff"
     bordercolor="#666666"
     borderopacity="1.0"
     inkscape:pageopacity="0.0"
     inkscape:pageshadow="2"
     inkscape:zoom="1.4"
     inkscape:cx="-23.317861"
     inkscape:cy="245"
     inkscape:document-units="px"
     inkscape:current-layer="layer1"
     showgrid="false"
     inkscape:window-width="1920"
     inkscape:window-height="1014"
     inkscape:window-x="0"
     inkscape:window-y="27"
     inkscape:window-maximized="1"
     fit-margin-top="0"
     fit-margin-left="0"
     fit-margin-right="0"
     fit-margin-bottom="0" />
  <metadata
     id="metadata7">
    <rdf:RDF>
      <cc:Work
         rdf:about="">
        <dc:format>image/svg+xml</dc:format>
        <dc:type
           rdf:resource="http://purl.org/dc/dcmitype/StillImage" />
        <dc:title />
      </cc:Work>
    </rdf:RDF>
  </metadata>
  <g
     inkscape:label="Layer 1"
     inkscape:groupmode="layer"
     id="layer1"
     transform="translate(-147.9783,-133.79077)">
    <g
       id="g4198"
       transform="matrix(0.79003183,0.38155553,-0.38644126,0.78004356,291.64875,-156.53278)">
      <path
         style="fill-opacity:0.0"
         d="m 128.21426,543.79077 0,-250 217.5,0 217.5,0 0,250 0,250 -217.5,0 -217.5,0 0,-250 z"
         id="path4214"
         inkscape:connector-curvature="0" />
      <path
         style="fill:#cccccc"
         d="m 363.36094,790.93745 c -0.76818,-0.76818 -1.39668,-3.50098 -1.39668,-6.07291 0,-2.57192 -0.46962,-4.96647 -1.0436,-5.32121 -0.57399,-0.35474 -2.04948,-6.15356 -3.27887,-12.88627 -1.7954,-9.83236 -3.33523,-14.14755 -7.82488,-21.92824 -3.07427,-5.32783 -6.07054,-9.98419 -6.65835,-10.34748 -0.58781,-0.36328 -3.90497,-5.35603 -7.37146,-11.095 -6.84608,-11.334 -16.88334,-20.69676 -37.57284,-35.04791 -5.84375,-4.05347 -14.84375,-11.38541 -20,-16.29317 -5.15625,-4.90778 -12.89062,-11.363 -17.1875,-14.34497 -4.29688,-2.98196 -7.8125,-5.85243 -7.8125,-6.37882 0,-2.31025 -13.20297,-7.4307 -19.1599,-7.4307 -5.63405,0 -6.6155,-0.46523 -11.31707,-5.36451 -27.5497,-28.70821 -50.59862,-51.10035 -53.24249,-51.72533 -3.69554,-0.87359 -7.53054,-3.92858 -7.53054,-5.9989 0,-0.7982 -1.96445,-3.19045 -4.36543,-5.31612 l -4.36544,-3.86487 2.46298,-5.42763 c 1.35464,-2.9852 2.46798,-6.27139 2.47409,-7.30264 0.0116,-1.95741 -8.12671,-14.51404 -17.02382,-26.26613 -4.10018,-5.41588 -5.30302,-8.17376 -5.71741,-13.10887 -0.28863,-3.4375 -2.03008,-11.2348 -3.86988,-17.32734 -4.40332,-14.58168 -4.81901,-35.23987 -0.84042,-41.76537 1.69986,-2.78802 2.51283,-6.37435 2.55022,-11.25 0.0551,-7.18263 1.16234,-17.11602 3.72383,-33.40729 0.75667,-4.8125 1.69092,-11.69124 2.07612,-15.28609 0.3852,-3.59485 30.91431,-70.79361 26.62706,-53.26003 -0.51179,2.09308 -22.2507,44.20056 -23.03375,48.56347 -0.49186,2.74046 -1.17192,8.94842 -1.51124,13.79547 -0.56176,8.0243 -0.31419,9.27526 2.76684,13.98114 2.7604,4.21616 -5.45375,-10.9549 -1.31558,-10.25576 4.41933,0.74664 1.84228,-8.89995 17.04966,14.17497 1.12895,1.71301 -16.61189,-21.24743 -15.20738,-23.07492 3.3635,-4.37644 10.52378,-11.98054 6.71675,-14.475 -3.51936,-2.30597 -3.78755,3.53742 0.28278,-5.42114 5.81807,-12.80523 10.23359,-17.37723 9.44458,-25.86664 -0.63262,-6.80677 8.63901,8.00288 10.297,6.62687 1.11564,-0.9259 17.58846,-0.31421 2.02844,-3.83666 -12.32544,-2.79021 11.09984,6.6854 2.64498,-4.53444 -10.14498,-13.46267 -4.9293,-17.92592 -3.11842,-21.07444 7.0395,-12.23933 32.83453,-29.61341 51.57459,-33.8493 19.58307,-4.42644 18.60953,2.86141 22.49463,-4.01922 9.79193,-17.3418 30.46082,-3.67422 37.28009,-4.44965 11.9584,-1.35981 9.49103,-6.4739 17.96897,4.14068 14.38233,18.00702 20.9185,0.1048 22.2935,0.83295 1.375,0.72816 17.47383,7.42041 20.22383,7.92912 11.83166,2.18866 16.70555,5.63136 29.80355,14.28814 4.46911,2.95374 7.33804,2.56496 14.01883,2.76334 4.49856,0.13359 16.84004,-0.23095 19.40849,0.87304 4.43592,1.90668 10.20055,6.84185 11.49528,10.21588 0.33248,0.86642 -18.70653,22.18518 -15.51728,23.07811 4.85031,1.35801 6.33548,1.33868 9.08136,-0.11819 l 3.28274,-1.7417 -5.21757,-0.38437 c -5.84513,-0.43061 -9.53782,-4.21308 -3.40636,-8.40578 42.65772,-29.16943 4.33206,1.0808 8.25087,-2.42775 19.50665,-17.4645 29.564,-3.37229 29.564,-1.58004 0,2.6287 -17.82792,17.28874 -1.37289,31.86044 7.16147,6.34182 11.55301,6.91732 15.40609,2.01893 1.4249,-1.81147 2.59072,-4.26686 2.59072,-5.45643 0,-1.18957 1.16155,-3.63953 2.58122,-5.44436 2.84073,-3.61139 2.3193,-5.80564 -1.37958,-5.80564 -1.53913,0 -3.30872,-1.7796 -4.93031,-4.95821 -1.39123,-2.72701 -3.65265,-5.5593 -5.02542,-6.29398 -1.42261,-0.76136 -2.49591,-2.61671 -2.49591,-4.31456 0,-4.94969 -1.2,-6.64055 -7.65031,-10.77971 -3.39799,-2.18048 -6.74279,-5.01954 -7.4329,-6.30902 -0.92653,-1.73123 -2.65217,-2.34452 -6.59685,-2.34452 -2.93816,0 -6.434,-0.82586 -7.76853,-1.83525 -1.33452,-1.00938 -3.42844,-1.85313 -4.65314,-1.875 -1.22471,-0.0219 -2.55051,-0.8835 -2.94623,-1.91475 -0.39574,-1.03125 -1.53628,-1.875 -2.53455,-1.875 -0.99827,0 -1.46739,-0.5625 -1.04249,-1.25 1.03687,-1.6777 7.65722,-1.5883 10.90001,0.14718 1.43586,0.76845 7.15218,2.04267 12.70293,2.8316 8.20602,1.16632 10.33887,1.92905 11.41171,4.08094 0.72569,1.45559 3.12864,4.16887 5.33989,6.02952 3.33806,2.80879 4.02046,4.26354 4.02046,8.57089 0,3.83638 0.80429,6.0055 3.08731,8.32638 1.69803,1.72617 4.90209,5.30713 7.12014,7.9577 3.62652,4.33369 4.4958,4.7571 8.62842,4.2028 7.2976,-0.97881 7.99405,0.0945 7.68619,11.8449 -0.14962,5.7107 -0.57642,11.83177 -0.94845,13.60238 -0.49835,2.37186 0.4773,4.83968 3.70635,9.375 2.41051,3.38564 5.56279,8.67554 7.00505,11.75534 1.44227,3.0798 4.37629,7.06393 6.52005,8.85362 2.71975,2.27055 3.98415,4.50217 4.18368,7.384 0.15726,2.27152 1.24484,6.25652 2.41685,8.85556 1.96682,4.36165 1.9755,4.94743 0.11262,7.607 -2.71583,3.87739 -2.55855,5.24127 1.10675,9.59723 1.71875,2.04262 3.125,4.50775 3.125,5.47806 0,0.97031 1.36426,3.61335 3.03169,5.87343 6.0101,8.14622 6.85975,24.11676 3.16554,59.50147 -1.11694,10.69846 -1.0908,15.60327 0.11775,22.10072 1.53247,8.23888 1.50896,8.40342 -1.75585,12.28342 -2.06058,2.44886 -3.30913,5.4324 -3.30913,7.90752 0,2.18616 -0.55022,5.89335 -1.22271,8.2382 -1.00217,3.49436 -0.7767,4.98502 1.25,8.26429 1.35999,2.20051 2.47271,5.3801 2.47271,7.06576 0,1.68565 1.73619,4.99425 3.8582,7.35245 2.12201,2.3582 4.70075,5.89841 5.73053,7.86714 1.02979,1.96873 4.3561,7.2074 7.3918,11.64151 6.08932,8.89437 6.43642,10.34252 3.53882,14.7648 -1.89026,2.8849 -1.79042,3.26168 2.1875,8.25619 5.78089,7.25821 24.68217,26.133 26.16968,26.133 0.75834,0 0.73151,0.59289 -0.0707,1.5625 -0.71103,0.85938 -10.1844,12.38164 -21.05195,25.60504 -17.79515,21.65273 -21.92708,25.86695 -41.56903,42.39687 -19.5893,16.4856 -43.44417,33.29405 -80.66123,56.83494 l -7.6014,4.80811 -22.56443,0.54294 c -15.62787,0.37604 -22.99379,0.11363 -23.9611,-0.85372 z M 522.42046,611.90492 c 0.92764,-2.41739 -0.84839,-7.09612 -3.54234,-9.3319 -1.15312,-0.957 -3.16022,-3.82493 -4.46025,-6.37316 -2.59556,-5.08773 -9.21874,-8.62712 -10.39716,-5.55618 -1.33132,3.46937 1.05694,7.78201 8.43401,15.22986 4.199,4.23928 7.99624,7.75491 8.4383,7.8125 0.44208,0.0576 1.12941,-0.74391 1.52744,-1.78112 z m -20.4562,-28.73915 c 0,-1.03125 -0.84375,-1.875 -1.875,-1.875 -1.03125,0 -1.875,0.84375 -1.875,1.875 0,1.03125 0.84375,1.875 1.875,1.875 1.03125,0 1.875,-0.84375 1.875,-1.875 z M 239.78264,532.01136 c 0.1815,-2.85513 -0.30103,-5.03883 -1.18255,-5.35163 -3.04099,-1.07905 -7.07574,11.27447 -4.51778,13.83243 1.71856,1.71855 5.40015,-3.75883 5.70033,-8.4808 z m -86.56838,-21.97059 c 0,-0.6875 -0.24805,-1.25 -0.55123,-1.25 -0.30318,0 -0.89887,0.5625 -1.32377,1.25 -0.4249,0.6875 -0.17685,1.25 0.55123,1.25 0.72807,0 1.32377,-0.5625 1.32377,-1.25 z m -11.64611,-7.73438 c -0.39903,-0.99716 -0.69523,-0.70097 -0.75521,0.75522 -0.0543,1.3177 0.24116,2.05599 0.65653,1.64062 0.41536,-0.41537 0.45977,-1.4935 0.0987,-2.39584 z m 124.14611,-9.15046 c 0,-2.31968 -0.54661,-4.55545 -1.21469,-4.96834 -1.8208,-1.12531 -7.53531,3.07498 -7.53531,5.53861 0,2.93097 0.69051,3.41821 5.01864,3.54127 3.42552,0.0974 3.73136,-0.2396 3.73136,-4.11154 z m -95.96981,-37.38547 c 0.5384,-2.59135 2.66437,-6.75629 4.72436,-9.25543 2.21331,-2.68511 3.74545,-5.99499 3.74545,-8.09125 0,-1.95105 0.60807,-4.68356 1.35127,-6.07225 2.42693,-4.53475 -0.12272,-4.19936 -4.5138,0.59376 -5.66867,6.18769 -11.06383,19.58102 -9.94313,24.68353 1.09422,4.98198 3.40729,4.05474 4.63585,-1.85836 z m 318.19167,-6.42557 c 2.98889,-2.0935 3.86009,-8.05412 1.17719,-8.05412 -0.88053,0 -2.38391,1.82812 -3.34086,4.0625 -0.95694,2.23437 -1.97089,4.48437 -2.25322,5 -0.86548,1.58071 1.48736,1.04355 4.41689,-1.00838 z m -2.1972,-42.46365 c 3.00256,-1.25455 8.93795,26.69653 10.94461,22.56622 l 2.82388,-5.81239 -5.95639,-5.54715 c -3.27602,-3.05093 -6.3393,-5.54715 -6.8073,-5.54715 -2.22915,0 -4.77946,-4.35966 -4.77946,-8.17031 0,-3.13766 -0.73206,-4.61758 -2.8125,-5.6857 -1.54688,-0.79419 -4.60215,-3.13703 -6.7895,-5.20632 -4.75355,-4.49698 -12.28904,-5.45705 -14.605,-1.86078 -1.17304,1.8215 -0.81739,2.68527 2.05874,5 l 3.47673,2.79811 -2.6157,5 c -3.97178,7.59218 -3.62495,-1.84849 0.83795,2.67846 -2.29521,21.79145 -29.27997,27.70557 7.46704,27.34503 0,0 14.43295,-26.58702 16.7569,-27.55802 z m -320.02466,-63.5469 c 0,-1.62603 1.25579,-4.5529 2.79064,-6.50415 1.53485,-1.95124 2.80048,-4.39933 2.8125,-5.44018 0.012,-1.04085 1.15853,-2.47336 2.54779,-3.18335 5.30931,-2.71335 10.59907,-7.1602 10.59907,-8.91013 0,-1.00321 2.67187,-4.33038 5.9375,-7.39371 5.14304,-4.82445 6.66881,-5.57253 11.40306,-5.59087 4.29206,-0.0166 5.18129,0.32134 4.14157,1.57411 -0.72818,0.87742 -3.35597,2.33008 -5.83952,3.22814 -4.385,1.58564 -13.14261,9.14939 -13.14261,11.35098 0,0.60009 -2.83638,3.12881 -6.30306,5.61938 -3.46669,2.49056 -6.51345,5.2152 -6.7706,6.05475 -0.25714,0.83955 -0.79661,3.034 -1.19881,4.87655 -0.75851,3.47482 -3.79695,7.27491 -5.81682,7.27491 -0.63839,0 -1.16071,-1.33039 -1.16071,-2.95643 z m 221.97631,-22.47607 c -3.38177,-0.79337 -6.41153,-2.23491 -6.7328,-3.2034 -0.48491,-1.46184 1.18203,-1.62471 9.81468,-0.95901 10.70346,0.82539 14.62712,2.44934 11.18136,4.62782 -2.3636,1.49432 -6.48282,1.35991 -14.26324,-0.46541 z M 208.89075,305.15461 c 0.71583,-0.738 4.07792,-1.86052 7.47133,-2.49448 4.13095,-0.77174 7.08891,-2.22114 8.95105,-4.386 3.08533,-3.58691 30.63773,-5.6224 27.68182,-2.06075 -2.9638,3.57117 -32.83402,8.54746 -39.15569,9.42021 -4.44148,0.61317 -5.8734,0.47457 -4.94851,-0.47898 z m 42.7834,-9.76975 c 2.24668,-0.27821 55.46051,-0.79619 57.33883,-0.51102 2.62702,-5.30771 -48.73662,-6.89756 -53.92372,1.02954 -2.25863,3.45171 -5.6618,-0.24037 -3.41511,-0.51857 z m 58.72761,0.0237 c 1.54687,-0.29794 69.9215,23.71166 70.59851,22.28924 3.56764,-7.49566 -62.31161,-30.92909 -67.78601,-21.74753 -1.58437,2.65727 -4.35938,-0.24377 -2.8125,-0.54171 z"
         id="path4212"
         inkscape:connector-curvature="0"
         sodipodi:nodetypes="csssscsssssssssscssssssssssssssssssssssssssssssssssscssssssssssssssssccsssssssssssssssssssssssssssssssssscssscsccssssscssssssssssssssscccccssssssssssssssscssscssssssscsccssscsssscssssssssssssssssssccsccssss" />
      <path
         style="fill:#b1b1b1"
         d="m 365.2976,790.45743 c -0.45834,-0.45832 -0.83334,-2.45501 -0.83334,-4.43707 0,-1.98205 -0.88001,-5.3055 -1.95559,-7.38543 -1.07557,-2.07994 -2.28324,-7.81762 -2.6837,-12.75042 l -0.72812,-8.96874 2.82898,2.5 c 2.82899,2.5 2.82899,2.5 2.3639,0 -0.25578,-1.375 -1.6928,-3.04035 -3.19333,-3.70079 -1.50054,-0.66042 -3.02968,-2.06667 -3.39808,-3.125 -0.59769,-1.71701 -8.5284,-13.92766 -15.01022,-23.11074 -1.99209,-2.82228 -2.10474,-3.58503 -0.6612,-4.47718 0.95697,-0.59145 1.475,-1.24656 1.15116,-1.45583 -0.32384,-0.20925 -1.7138,-0.9969 -3.0888,-1.75034 -1.375,-0.75342 -3.0625,-3.02327 -3.75,-5.04411 -1.77768,-5.22528 -10.11601,-13.78142 -16.57359,-17.0065 -4.93979,-2.46705 -18.10926,-14.58175 -20.50501,-18.86272 -0.51618,-0.92236 -3.2549,-3.28228 -6.08604,-5.24425 -4.20477,-2.91393 -5.34726,-3.24407 -6.23811,-1.80265 -0.89098,1.44165 -1.67456,1.21597 -4.28141,-1.23304 -3.85529,-3.62185 -4.17474,-5.67637 -0.58378,-3.75455 3.45679,1.85001 4.56579,0.53429 1.96862,-2.33556 -1.14163,-1.26148 -2.07568,-2.86333 -2.07568,-3.55965 0,-0.69634 -1.1406,-2.6208 -2.53468,-4.27658 -1.39407,-1.65579 -6.74135,-8.16016 -11.88283,-14.45416 -5.14149,-6.29401 -11.29523,-12.59245 -13.67495,-13.99653 -2.66389,-1.57173 -4.6478,-3.89935 -5.16203,-6.05634 -0.91027,-3.81822 -3.7124,-9.4168 -6.89675,-13.77954 -1.507,-2.06468 -1.88184,-4.62723 -1.46276,-10 0.30991,-3.97316 0.45546,-8.63019 0.32344,-10.34894 -0.38694,-5.03767 -0.36924,-6.0276 0.43947,-24.57243 0.76471,-17.53572 1.37397,-20.21754 7.26363,-31.97311 0.5981,-1.1938 1.08746,-4.99067 1.08746,-8.4375 l 0,-6.26696 -5.77206,0 c -5.01231,0 -6.39454,0.62247 -10.50121,4.72915 -6.99944,6.99944 -7.48148,13.23709 -3.8366,49.64585 0.75708,7.5625 1.8757,14.91136 2.48583,16.33081 0.80142,1.86451 0.47537,3.42126 -1.17477,5.60889 l -2.28408,3.02808 -2.89605,-2.71627 c -5.82486,-5.46324 -14.0381,-10.25351 -15.50004,-9.04021 -1.51739,1.25932 -0.89315,7.4137 0.75197,7.4137 1.67133,0 12.47701,15.33844 12.47701,17.71086 0,2.44915 -4.15014,4.00175 -8.89625,3.32815 -2.04466,-0.29019 -3.055,0.28067 -3.37812,1.90864 -0.42368,2.13464 0.3327,2.28641 9.34419,1.875 l 9.80518,-0.44765 0.4043,4.23146 c 0.35033,3.6666 0.10003,4.11005 -1.875,3.32192 -1.25362,-0.50026 -3.68555,-1.05887 -5.4043,-1.24135 -1.71875,-0.18249 -4.10938,-0.75317 -5.3125,-1.26815 -3.62281,-1.55073 -2.54031,1.56164 2.1875,6.28946 2.40625,2.40625 4.375,4.99145 4.375,5.7449 0,0.75345 -6.30025,-4.74968 -14.00055,-12.22917 -20.26039,-19.67941 -22.12677,-21.55365 -30.04423,-30.17073 -5.0394,-5.48472 -8.07705,-7.80334 -10.22321,-7.80334 -3.33396,0 -6.98201,-2.93834 -6.98201,-5.62369 0,-0.93231 -1.81319,-3.11415 -4.0293,-4.84851 l -4.0293,-3.15341 2.78081,-5.72374 c 2.59606,-5.34346 2.65382,-5.9912 0.86939,-9.74969 -2.89122,-6.08972 -10.08791,-17.1302 -15.06595,-23.11277 -4.32942,-5.20305 -7.71219,-15.53709 -4.41989,-13.50234 0.83975,0.519 1.15032,2.01348 0.70801,3.40706 -0.58404,1.84014 -0.11202,2.65928 1.82415,3.16559 1.43665,0.3757 2.61208,1.27213 2.61208,1.99206 0,0.71994 3.27903,5.01371 7.28674,9.54171 9.97348,11.26827 14.22875,18.74216 12.45744,21.88007 -0.7443,1.31854 -1.46229,4.19298 -1.59553,6.38767 -0.20138,3.31679 0.40916,4.32078 3.61704,5.948 2.12262,1.07673 5.71743,2.18738 7.98846,2.46813 4.83195,0.59732 7.14436,-2.31879 6.0692,-7.65371 -0.93092,-4.61921 1.61575,-12.48463 4.3202,-13.34299 1.24411,-0.39486 3.37504,-0.12225 4.73539,0.60577 2.63261,1.40893 9.69454,12.19078 15.0185,22.92957 1.77516,3.58062 4.07131,6.51022 5.10256,6.51022 2.88232,0 2.9182,-4.85906 0.055,-7.4502 -1.40526,-1.27175 -2.55502,-3.80085 -2.55502,-5.62024 0,-1.81937 -1.3779,-8.04741 -3.06199,-13.84007 l -3.06199,-10.53213 5.56199,-5.17956 c 6.41315,-5.97221 6.97122,-8.76879 2.12449,-10.64624 -2.72622,-1.05605 -4.8851,-0.81575 -10.43354,1.16134 -6.35394,2.26411 -7.64898,2.34113 -14.11023,0.83916 -7.6837,-1.78613 -13.39626,-6.22772 -15.65191,-12.16956 -0.71772,-1.89062 -2.16262,-3.4375 -3.21088,-3.4375 -2.65345,0 -2.37809,1.60377 0.59406,3.45991 1.375,0.8587 2.50861,2.82213 2.51914,4.36318 0.0105,1.54105 0.4447,3.47122 0.96483,4.28926 1.34209,2.11081 9.45988,7.46799 12.94963,8.54586 1.61777,0.49968 4.52808,1.71602 6.46735,2.70299 2.86717,1.4592 3.24728,2.13026 2.03445,3.59164 -2.0305,2.4466 -8.27232,2.21447 -14.3104,-0.53219 -5.78342,-2.63082 -7.45532,-4.43689 -8.62162,-9.31351 -0.56699,-2.37071 -2.02295,-3.92976 -4.46488,-4.78103 -3.73546,-1.30218 -6.50691,-4.57851 -8.07959,-9.55147 -0.68928,-2.17959 0.004,-3.88124 2.94484,-7.23099 2.11544,-2.40935 3.84625,-5.51824 3.84625,-6.90862 0,-4.10682 -2.72795,-14.10938 -4.40043,-16.13503 -3.37417,-4.08667 -5.27114,-9.53289 -4.68042,-13.4375 0.33803,-2.23437 1.25388,-4.04196 2.03522,-4.01686 1.88841,0.0606 8.29563,10.27805 8.29563,13.22875 0,3.83959 6.16777,-3.69455 7.00784,-8.5603 0.38829,-2.249 1.73548,-6.90159 2.99376,-10.33909 1.25828,-3.4375 2.59162,-8.42445 2.96297,-11.08211 0.41423,-2.96448 3.35371,-8.85746 7.60531,-15.24688 3.81157,-5.72811 6.93012,-10.97316 6.93012,-11.65566 0,-0.68251 2.8125,-4.9104 6.25,-9.39531 3.4375,-4.48492 6.25,-8.90604 6.25,-9.82472 0,-0.91868 0.62599,-2.29631 1.39108,-3.06141 1.67974,-1.67973 0.41966,-4.10891 -2.13141,-4.10891 -2.50782,0 -13.72881,5.7531 -20.09379,10.30227 -2.86502,2.04768 -5.81815,3.34666 -6.5625,2.88662 -0.74436,-0.46004 -1.35338,-3.90462 -1.35338,-7.65462 0,-3.75001 -0.60174,-7.79494 -1.33721,-8.98873 -1.04375,-1.69421 -0.38882,-4.24398 2.98439,-11.61875 4.80328,-10.50129 11.35469,-17.83495 22.86363,-25.59361 6.66143,-4.49075 17.25523,-12.63209 25.48919,-19.58846 1.71875,-1.45206 5.96001,-3.89808 9.42503,-5.43558 3.46501,-1.5375 7.045,-3.6931 7.95552,-4.79022 1.0896,-1.31288 2.69206,-1.7346 4.68785,-1.23369 1.86683,0.46855 3.85376,0.0437 5.16947,-1.10522 2.88083,-2.51573 28.52744,-3.69155 38.15257,-1.74917 5.90761,1.19218 6.05767,4.95717 0.22387,5.61727 -7.28257,0.82403 -8.35715,5.70485 -1.47275,6.68935 1.49051,0.21314 3.44911,1.93441 4.35244,3.82504 1.43096,2.99494 2.39805,3.45354 7.51171,3.5621 7.16304,0.15206 13.00284,1.70487 10.24429,2.72396 -1.03125,0.38097 -5.16045,1.03182 -9.17601,1.44632 -16.95419,1.75008 -34.46104,8.83454 -36.4932,14.76762 -0.43792,1.2785 -2.01281,2.1875 -3.79003,2.1875 -1.67241,0 -3.04076,0.5625 -3.04076,1.25 0,0.6875 1.37305,1.25 3.05122,1.25 1.67818,0 3.39888,0.5625 3.82378,1.25 0.93626,1.51491 9.40631,1.54243 16.25,0.0528 7.65281,-1.66574 30.2885,-8.53475 33.12191,-10.05115 4.3573,-2.33195 18.14065,-2.99803 24.60225,-1.18889 6.06508,1.69812 8.01956,2.75183 22.61693,12.19337 l 8.31966,5.38114 10.66962,-0.62798 c 6.13286,-0.36095 12.66434,-0.0398 15.36082,0.75533 3.41722,1.00765 5.51137,1.00961 7.71142,0.007 5.46315,-2.48917 20.72239,4.31099 20.72239,9.23477 0,2.30119 7.6269,5.36143 11.51136,4.61887 2.20282,-0.42109 4.18093,0.38551 6.72298,2.74141 1.98101,1.83593 5.15744,4.25698 7.05875,5.38011 1.9013,1.12312 3.45691,2.95859 3.45691,4.0788 0,2.44556 -3.32031,5.55712 -7.1875,6.73561 -3.48,1.0605 -3.64264,3.90638 -0.32472,5.68207 3.82121,2.04505 12.64204,14.41482 13.73507,19.26119 0.56561,2.50783 0.40514,6.4611 -0.38198,9.41002 -1.21405,4.54846 -1.76261,5.08534 -5.19598,5.08534 -2.11124,0 -5.10117,-0.88431 -6.64428,-1.96515 -3.01154,-2.10938 -8.9207,-13.0086 -11.47209,-21.15985 -0.86261,-2.7559 -4.14451,-7.66486 -7.31228,-10.9375 -5.3677,-5.54539 -6.16539,-5.9375 -12.07862,-5.9375 -6.828,0 -9.21732,1.20397 -17.7972,8.96796 -3.14333,2.84443 -6.54426,4.78204 -8.39351,4.78204 -1.84024,0 -3.6606,1.03076 -4.46074,2.52584 -1.49166,2.7872 -0.71396,4.97416 1.76887,4.97416 2.91901,0 5.74496,4.49855 5.74496,9.14525 0,3.96795 0.6548,4.98675 4.94625,7.69582 2.72045,1.71734 5.52765,4.20878 6.23825,5.53654 1.11612,2.08549 1.79041,2.22598 4.95354,1.03203 4.43252,-1.67309 7.61196,0.32958 7.61196,4.79465 0,1.59398 0.57167,3.25148 1.27039,3.68331 4.40912,2.72499 -5.5295,4.2816 -10.41507,1.63122 -3.74947,-2.03405 -12.49927,-2.65057 -28.66782,-2.01996 -2.92188,0.114 -9.39063,-0.25744 -14.375,-0.82532 l -9.0625,-1.03254 0,3.65661 c 0,3.26229 -0.61559,3.83836 -5.70846,5.34211 -4.36045,1.28748 -6.4406,1.35193 -8.80882,0.27289 -3.96655,-1.80727 -15.07317,-1.83656 -16.18186,-0.0426 -3.07605,4.97716 21.2099,11.8668 39.54263,11.21778 5.01651,-0.1776 7.42133,0.29898 8.5852,1.70134 1.25561,1.51293 3.07551,1.77659 8.14773,1.18045 7.72893,-0.90839 11.92358,0.83849 11.92358,4.96559 0,3.57486 6.10964,9.56489 9.7559,9.56489 1.56649,0 2.7441,0.77947 2.7441,1.81635 0,2.1838 8.01311,6.23388 10.46912,5.29143 0.99068,-0.38016 3.37035,1.17475 5.52847,3.61238 2.08398,2.35391 4.6432,4.27984 5.68713,4.27984 1.26185,0 1.86525,1.15441 1.80015,3.44397 -0.0539,1.8942 1.10877,5.80929 2.5836,8.70021 1.47484,2.89092 2.68153,6.40363 2.68153,7.80602 0,1.40238 1.0638,3.6136 2.364,4.9138 1.38766,1.38766 2.72907,5.13047 3.24797,9.0625 0.70005,5.30473 1.80465,7.6566 5.30882,11.30317 3.78012,3.93376 4.30907,5.1835 3.63033,8.57721 -0.53901,2.69505 0.009,5.7876 1.70219,9.61673 1.37318,3.1043 2.49669,6.18047 2.49669,6.83595 0,0.65547 1.89116,4.0996 4.20257,7.6536 6.25918,9.62402 8.29743,14.45265 8.29743,19.6566 0,4.14297 0.46112,4.84642 3.98134,6.07357 5.9561,2.07632 8.60625,4.94747 7.74265,8.38832 -0.58808,2.34308 -0.0849,3.17816 2.50936,4.1645 4.08841,1.5544 7.10704,0.49386 6.09571,-2.14162 -0.5766,-1.5026 -0.22764,-1.78308 1.42798,-1.14777 1.84497,0.70799 2.08213,0.29801 1.50143,-2.59549 -0.54152,-2.69831 0.22627,-4.46885 3.57518,-8.24437 4.77815,-5.38685 7.22007,-5.14804 6.07171,0.5938 -0.61624,3.08116 -0.12799,4.40233 2.5417,6.87782 1.81746,1.68524 4.44055,5.29098 5.8291,8.01278 1.38856,2.72178 3.2902,4.9487 4.22589,4.9487 0.93567,0 3.26574,2.10937 5.17791,4.6875 5.6173,7.57362 12.77951,14.0625 15.52174,14.0625 2.1099,0 2.54971,0.80641 2.55654,4.6875 0.005,2.57812 1.0975,6.33991 2.42882,8.35952 1.33133,2.01961 2.1622,4.09011 1.84638,4.60113 -0.31582,0.51101 -0.003,1.28242 0.69617,1.71425 0.69871,0.43182 1.27039,0.18945 1.27039,-0.53863 0,-0.72807 0.84375,-1.32377 1.875,-1.32377 2.82349,0 2.28116,2.6201 -1.91038,9.22947 -16.06571,25.33299 -46.71271,52.86479 -93.08962,83.62725 -43.05121,28.5565 -38.53459,26.37368 -52.91075,25.57093 -6.64909,-0.37128 -13.60796,-1.37184 -15.46416,-2.22348 -2.80532,-1.2871 -4.103,-1.20292 -7.68892,0.4987 -4.88927,2.32011 -5.08363,2.35799 -6.22783,1.21379 z m 8.44186,-12.63407 c -0.47524,-2.97199 -2.06959,-6.29768 -3.7972,-7.92069 l -2.978,-2.79769 0,3.18984 c 0,1.75441 0.84375,3.89009 1.875,4.74595 1.03125,0.85586 1.875,3.08099 1.875,4.94473 0,1.86373 0.38437,3.77298 0.85416,4.24277 1.8212,1.8212 2.95268,-1.51684 2.17104,-6.40491 z M 267.02833,499.10327 c 3.0548,-8.38591 5.55297,-11.61538 9.92017,-12.82416 3.96261,-1.0968 5.00726,-0.79112 10.71308,3.13498 7.53092,5.18191 15.2386,6.87668 31.27452,6.87668 16.5255,0 17.1682,-3.3176 1.91801,-9.9006 -4.10831,-1.77341 -10.46109,-5.86746 -14.11726,-9.09786 -22.31454,-19.71599 -26.8904,-22.69006 -33.87252,-22.01545 -3.60337,0.34816 -4.02957,0.80812 -4.06808,4.39025 -0.0537,5.00236 -0.95111,5.93305 -4.09717,4.24934 -2.05729,-1.10104 -2.82832,-0.79416 -4.53009,1.80308 -1.12797,1.72148 -1.91083,3.81988 -1.73971,4.6631 0.17112,0.84323 -0.70226,6.87689 -1.94085,13.40814 -2.84143,14.98327 -1.86693,18.75 4.85083,18.75 3.70334,0 4.6439,-0.56833 5.68907,-3.4375 z M 188.8095,469.26696 c 1.11309,-1.11309 1.76395,-2.28367 1.44634,-2.60128 -0.87024,-0.87024 -5.79158,2.03508 -5.79158,3.41906 0,1.83498 2.08486,1.4426 4.34524,-0.81778 z m 74.21218,-14.85119 c -0.24082,-6.36683 -1.75656,-7.27656 -3.64465,-2.1875 -0.70143,1.89062 -2.23438,4.2163 -3.40656,5.16816 -2.00575,1.62879 -2.0048,1.68719 0.0162,0.9921 1.18111,-0.40622 2.47994,-0.20065 2.88628,0.45683 0.40635,0.65747 1.5539,1.19541 2.55012,1.19541 1.34495,0 1.75655,-1.44834 1.59857,-5.625 z m 11.48144,-10 c -0.0581,-1.86974 -5.36937,-1.50848 -6.00842,0.40867 -0.38624,1.15874 0.44178,1.5355 2.7472,1.25 1.81505,-0.22477 3.2826,-0.97117 3.26122,-1.65867 z m -4.55241,-8.49411 c 1.27821,-0.93465 2.30395,-3.44467 2.42641,-5.9375 0.19709,-4.01202 -0.0539,-4.31839 -3.53786,-4.31839 -3.58688,0 -3.76658,0.25827 -4.13099,5.9375 -0.40776,6.35476 0.93964,7.46466 5.24244,4.31839 z m 132.54102,-30.93101 c 13.06505,-1.88838 14.15344,-3.75415 6.10752,-10.4698 -4.07755,-3.40339 -18.90553,-7.46934 -22.3789,-6.13648 -2.36953,0.90927 -2.2197,6.03679 0.28824,9.86439 1.12437,1.71602 1.69174,3.4726 1.26083,3.90351 -1.1832,1.1832 1.71918,4.14193 4.03539,4.11374 1.11895,-0.0136 5.92806,-0.58753 10.68692,-1.27536 z M 256.33926,651.29077 c -0.4249,-0.6875 -0.21004,-1.25 0.47746,-1.25 0.6875,0 1.59764,0.5625 2.02254,1.25 0.4249,0.6875 0.21004,1.25 -0.47746,1.25 -0.6875,0 -1.59764,-0.5625 -2.02254,-1.25 z m -16.73512,-8.85124 c -6.70949,-1.31781 -6.94174,-1.53195 -5.19718,-4.7917 2.11754,-3.95666 6.44046,-3.2234 10.42309,1.76798 3.69094,4.62581 3.49834,4.73725 -5.22591,3.02372 z m 261.97017,-78.74107 -3.27487,-5.00195 2.84022,-1.07985 c 4.19083,-1.59335 10.22871,-9.92178 8.46886,-11.68163 -0.76685,-0.76685 -1.39426,-2.34207 -1.39426,-3.5005 0,-2.24686 -3.75469,-5.19188 -8.55482,-6.71006 -6.25254,-1.97754 -13.76068,-8.21214 -15.22202,-12.64001 -2.33644,-7.0795 -1.41664,-7.81317 8.87251,-7.07699 11.48657,0.82186 12.40433,-0.18228 12.40433,-13.57187 0,-7.40454 -0.43291,-9.79348 -1.875,-10.34687 -2.66603,-1.02305 -2.31974,-2.89009 0.68161,-3.67495 2.30431,-0.60259 2.4792,-1.3263 1.77213,-7.33328 -0.43148,-3.66561 -1.58195,-8.78549 -2.55662,-11.37753 -0.97467,-2.59204 -1.77212,-6.38891 -1.77212,-8.4375 0,-2.04859 -0.49692,-3.7247 -1.10428,-3.7247 -1.93046,0 -2.36588,-6.16037 -0.59627,-8.43603 1.59869,-2.05583 1.85421,-2.0095 4.20139,0.76201 1.37454,1.62305 2.49916,4.31257 2.49916,5.97673 0,1.66417 0.79225,3.32976 1.76055,3.70134 0.96831,0.37157 2.34534,2.18205 3.06006,4.02327 2.20904,5.69075 4.21981,21.86749 3.60853,29.03068 -0.31996,3.74935 -1.30138,14.81025 -2.18091,24.57977 -1.17108,13.00769 -1.24354,19.53287 -0.27071,24.375 1.28831,6.41228 1.218,6.72743 -2.32452,10.42174 -2.96591,3.09298 -3.653,4.90121 -3.653,9.61373 0,3.19232 -0.47589,6.09834 -1.05754,6.45781 -0.58165,0.35947 -2.53123,-1.59729 -4.33241,-4.34836 z m -26.56654,-61.95882 c -2.36143,-2.57807 -4.29351,-5.94058 -4.29351,-7.47223 0,-1.53165 -1.40625,-4.45606 -3.125,-6.49868 -4.0802,-4.84903 -4.35584,-12.3532 -0.50608,-13.77732 2.91352,-1.07779 12.8179,0.40081 20.56674,3.07034 4.81883,1.66012 5.03575,1.95673 4.53953,6.20723 -0.28662,2.4551 -1.29829,4.76204 -2.24815,5.12654 -2.78501,1.0687 -2.16039,8.69995 0.88678,10.83427 1.4702,1.02978 2.42217,2.83824 2.17579,4.13339 -0.34832,1.83108 -1.79615,2.38054 -7.07031,2.68324 -6.27024,0.35987 -6.86665,0.12475 -10.92579,-4.30678 z M 131.02676,495.3672 c -1.13835,-0.38959 -1.5625,-4.78388 -1.5625,-16.18765 0,-14.87272 0.15576,-15.83799 3.125,-19.36674 2.77135,-3.29357 3.12693,-4.87005 3.14207,-13.93045 0.0186,-11.13137 0.89746,-16.19646 2.62504,-15.12876 1.34958,0.83408 1.33414,21.38147 -0.0222,29.62471 -0.58109,3.53141 -2.20713,7.26752 -3.98799,9.1631 -2.51607,2.67815 -3.02893,4.56136 -3.14203,11.53746 -0.0743,4.5853 0.39675,8.68176 1.04686,9.10326 1.72633,1.11927 0.61756,5.8154 -1.2242,5.18507 z m 339.106,-110.45592 c -2.43018,-2.13372 -4.4185,-4.43929 -4.4185,-5.12349 0,-0.6842 1.74661,-2.87558 3.88136,-4.86974 3.3353,-3.11562 3.81423,-4.32991 3.40406,-8.63084 -0.37675,-3.95057 -0.0113,-5.15288 1.73244,-5.70646 3.84924,-1.2217 4.7325,0.62148 4.71838,9.84629 -0.0182,11.86771 -1.1612,18.36373 -3.2313,18.36373 -0.91737,0 -3.65628,-1.74577 -6.08644,-3.87949 z M 300.35498,341.76482 c -2.34966,-2.34966 -0.74518,-4.36841 3.17178,-3.99075 4.93981,0.47629 5.62744,3.9592 0.89072,4.51159 -1.74448,0.20344 -3.57261,-0.0309 -4.0625,-0.52084 z m 134.73428,-18.70423 -3.75,-1.77713 5,0.78027 c 2.75,0.42915 5.53438,1.27454 6.1875,1.87865 1.86136,1.72168 -3.21341,1.12001 -7.4375,-0.88179 z"
         id="path4210"
         inkscape:connector-curvature="0" />
      <path
         style="fill:#eba433"
         d="m 392.37525,788.97867 c -3.86161,-1.15664 -7.91099,-6.82797 -7.91099,-11.07971 0,-1.99237 -1.40625,-5.52855 -3.125,-7.85819 -1.71875,-2.32964 -3.125,-5.19315 -3.125,-6.36336 0,-1.17021 -2.10938,-3.94115 -4.6875,-6.15763 -5.76333,-4.95489 -10.60962,-11.3228 -14.2537,-18.72901 -3.16431,-6.43113 -6.2504,-10.5574 -16.3713,-21.88938 -3.95313,-4.42616 -7.1875,-9.12848 -7.1875,-10.4496 0,-2.56627 -7.78404,-10.16102 -10.41426,-10.16102 -0.86749,0 -2.85724,-0.98437 -4.42164,-2.1875 -10.92108,-8.39895 -16.4141,-13.35069 -16.4141,-14.79661 0,-0.92287 -1.0176,-2.22254 -2.26134,-2.88817 -2.94,-1.57343 -12.85243,-11.87783 -17.55842,-18.25272 -2.03006,-2.75 -5.99485,-7.46171 -8.81064,-10.47048 -2.81578,-3.00876 -5.1196,-5.90866 -5.1196,-6.44423 0,-0.53556 -2.01321,-3.3834 -4.4738,-6.32854 -2.46059,-2.94513 -5.80949,-7.99065 -7.44201,-11.21228 -1.63252,-3.22162 -3.76998,-6.16516 -4.7499,-6.5412 -0.97993,-0.37602 -3.05019,-4.8056 -4.60059,-9.84348 -2.52314,-8.19869 -2.82042,-11.78294 -2.8333,-34.15979 l -0.0144,-25 3.72812,-8.125 c 2.05047,-4.46875 4.11183,-9.67188 4.58082,-11.5625 0.46897,-1.89063 1.68571,-3.4375 2.70386,-3.4375 1.10864,0 1.85119,-1.17579 1.85119,-2.93126 0,-1.6122 1.13352,-3.9571 2.51895,-5.21089 1.38542,-1.25379 2.85222,-4.2941 3.25955,-6.75624 2.30476,-13.93117 10.65569,-21.1614 18.74404,-16.22859 2.14365,1.30734 4.85668,2.37698 6.02896,2.37698 1.17229,0 4.15129,2.25 6.62001,5 2.46874,2.75 5.26249,5 6.20834,5 0.94586,0 4.08796,-1.20946 6.98245,-2.68769 4.13615,-2.11234 7.64159,-2.7144 16.37566,-2.8125 13.98186,-0.15704 15.57188,-1.65734 10.10966,-9.53931 -1.99917,-2.88481 -4.49836,-5.54538 -5.55375,-5.91236 -7.46856,-2.59699 -16.52565,-7.86845 -17.24936,-10.03959 -0.7271,-2.18131 2.60338,-1.8556 8.73455,0.85421 8.11755,3.58775 18.2666,7.22959 26.59594,9.54358 15.0069,4.16908 35.24951,12.75391 38.061,16.14155 0.89106,1.07366 2.20715,1.95211 2.92464,1.95211 2.60283,0 20.42416,11.91772 26.82686,17.94002 7.02679,6.60932 8.51247,11.58343 4.71359,15.78115 -1.66193,1.8364 -1.28868,2.51134 3.69047,6.67339 5.7678,4.82129 11.90844,15.22723 11.90844,20.18009 0,1.57807 0.78901,3.52406 1.75337,4.3244 0.99862,0.82879 2.12554,5.16115 2.61798,10.0646 0.52105,5.18843 1.50546,8.85534 2.4774,9.22831 1.01944,0.3912 1.61279,2.91785 1.61279,6.86778 0,5.25596 -0.57295,6.79782 -3.60577,9.70345 -1.98317,1.9 -3.60577,4.29742 -3.60577,5.32761 0,1.03019 -1.26563,3.22571 -2.8125,4.87895 -1.98418,2.12061 -2.8125,4.53726 -2.8125,8.20556 0,4.93699 -0.20233,5.21927 -4.00474,5.58708 -5.05707,0.48919 -9.98449,-1.89816 -8.00446,-3.87819 2.11172,-2.11172 1.6605,-3.3842 -1.20004,-3.3842 -2.01539,0 -2.40957,0.5503 -1.79076,2.5 0.46111,1.45283 0.22462,2.5 -0.56458,2.5 -1.25586,0 -1.0587,2.33576 0.76499,9.0625 0.32619,1.20313 1.33003,2.1875 2.23076,2.1875 3.3627,0 4.39384,3.11318 3.30744,9.98567 -0.80206,5.07388 -1.85351,7.27691 -4.33621,9.08543 -1.80256,1.31307 -3.2774,3.01285 -3.2774,3.77726 0,0.76442 -1.51394,2.97005 -3.3643,4.90142 -2.83503,2.95913 -3.17918,4.03541 -2.1875,6.84126 1.32802,3.75756 4.3018,5.40845 4.3018,2.38812 0,-2.5098 2.0018,-2.58043 2.95204,-0.10412 1.10801,2.88745 3.04656,2.23701 5.0858,-1.70645 1.01862,-1.96979 3.73841,-4.47658 6.04397,-5.57064 2.30556,-1.09406 9.64284,-7.4048 16.30506,-14.02385 6.66222,-6.61906 12.11313,-11.1837 12.11313,-10.14364 0,4.41754 9.62126,8.2162 11.81594,4.66515 0.3924,-0.63493 3.65997,-2.11073 7.26126,-3.27955 3.60129,-1.16882 8.65349,-3.2821 11.22712,-4.69616 l 4.67932,-2.57102 3.13318,2.94347 c 1.72324,1.61891 3.13318,4.26402 3.13318,5.87803 0,4.44977 6.71041,18.13854 10.44589,21.3089 3.84742,3.26535 4.19432,7.11915 1.20508,13.38766 -2.51296,5.26971 -1.69936,6.59146 2.40285,3.9036 3.57874,-2.34489 5.133,-1.37236 3.2951,2.06178 -1.03997,1.94321 -0.7708,3.03086 1.29398,5.22872 3.14106,3.34351 3.27921,5.42447 0.55959,8.42962 -1.57937,1.74518 -1.71734,2.66033 -0.60344,4.00249 2.22,2.67495 0.86614,4.62563 -10.2108,14.712 -25.5844,23.29648 -35.55415,30.665 -82.35775,60.86966 -14.97918,9.6668 -16.20796,10.21843 -22.5,10.10063 -3.66053,-0.0685 -7.8768,-0.4904 -9.36951,-0.9375 z m -34.64819,-97.10456 c 0.7633,-1.00834 2.31017,-1.83334 3.4375,-1.83334 1.12734,0 2.0497,-0.5625 2.0497,-1.25 0,-0.6875 -1.43945,-1.25 -3.19878,-1.25 -1.75932,0 -2.86856,0.53428 -2.46498,1.18729 1.00831,1.63149 -3.70125,3.97792 -6.12069,3.0495 -1.08105,-0.41485 -1.96555,-1.46142 -1.96555,-2.3257 0,-1.88417 -9.36078,-5.66109 -14.03053,-5.66109 -4.70755,0 -5.33645,1.95812 -1.98984,6.19556 2.86641,3.62945 6.02037,4.96767 6.02037,2.55444 0,-1.88911 2.42902,-1.49955 4.679,0.75043 2.41227,2.41227 11.39436,1.47524 13.5838,-1.41709 z m -1.44138,-175.73834 c 2.21937,-2.06434 -2.68551,-5.23886 -8.27703,-5.35706 -4.2059,-0.0889 -5.43937,0.36787 -5.79901,2.14757 -0.98563,4.87736 0.61737,6.07309 6.93282,5.1714 3.27074,-0.46697 6.48519,-1.34983 7.14322,-1.96191 z m -147.11047,91.25106 -5.91405,-5.06664 -1.47409,3.23529 c -1.97857,4.34248 -3.48117,4.08965 -8.94412,-1.50491 -5.32649,-5.45482 -5.64951,-6.5098 -1.99318,-6.5098 2.24974,0 2.50994,-0.50315 1.77761,-3.4375 -0.47184,-1.89062 -1.58227,-4.28125 -2.46762,-5.3125 -2.15912,-2.51494 -3.59825,-8.16521 -3.8205,-15 -0.1006,-3.09375 -0.6233,-7.16664 -1.16154,-9.05085 -0.763,-2.671 -0.50644,-3.60705 1.16439,-4.24821 3.20291,-1.22908 8.14812,5.88622 12.18465,17.53157 1.89062,5.45444 3.4375,10.95062 3.4375,12.21373 0,2.72265 8.32082,12.30376 10.68533,12.30376 2.15475,0 7.1987,7.11735 6.19494,8.74147 -1.36228,2.20422 -3.60337,1.30137 -9.66932,-3.89541 z m -43.89762,-26.68102 c -1.11461,-2.90463 1.41348,-3.51114 2.91793,-0.70005 1.06858,1.99666 0.97757,2.53501 -0.42854,2.53501 -0.98189,0 -2.10211,-0.82574 -2.48939,-1.83496 z m -8.31333,-9.48882 c 0,-0.72807 0.5625,-0.97612 1.25,-0.55122 0.6875,0.4249 1.25,1.0206 1.25,1.32378 0,0.30317 -0.5625,0.55122 -1.25,0.55122 -0.6875,0 -1.25,-0.5957 -1.25,-1.32378 z m 56.29103,-10.14702 c -4.34564,-7.12486 -4.55078,-11.81019 -0.83813,-19.14243 3.70133,-7.30988 4.23501,-13.30226 1.39463,-15.65957 -1.56269,-1.29691 -3.29285,-0.98874 -9.6875,1.72554 -5.52863,2.3467 -9.95881,3.30205 -15.28503,3.29619 -9.72487,-0.0113 -14.51269,-2.88701 -18.76102,-11.27067 -2.55983,-5.0516 -3.70572,-6.20892 -5.5637,-5.61922 -2.99753,0.95138 -4.48586,-1.4018 -2.44325,-3.863 0.95979,-1.15648 1.45543,-4.75711 1.27234,-9.2431 -0.33988,-8.32791 0.73262,-10.94414 7.54806,-18.41251 4.06526,-4.45472 4.82257,-6.14819 4.82257,-10.78417 0,-3.02477 0.92005,-9.5737 2.04455,-14.55313 1.65926,-7.34747 3.1977,-10.49747 8.16385,-16.71584 3.36561,-4.21426 7.08619,-9.27201 8.26795,-11.23946 4.5905,-7.64248 14.79514,-18.58813 18.99344,-20.37264 3.10198,-1.31852 6.50046,-1.64354 11.48765,-1.09864 9.65924,1.05536 13.54256,-0.0439 13.54256,-3.83348 0,-2.18573 1.08867,-3.44267 4.0625,-4.6904 2.23437,-0.93747 4.625,-1.2979 5.3125,-0.80094 2.65323,1.91786 8.40611,2.57108 10.11956,1.14904 0.96549,-0.80129 1.75544,-3.2316 1.75544,-5.40069 0,-4.30383 2.97771,-9.50008 5.44402,-9.50008 0.85375,0 8.83119,-3.65596 17.72763,-8.12436 8.89645,-4.4684 18.15041,-8.4569 20.56436,-8.86334 2.41394,-0.40643 9.0424,-2.18087 14.7299,-3.94319 9.56476,-2.96372 10.86818,-3.08622 17.36571,-1.63214 8.04289,1.79992 20.41838,9.16467 20.41838,12.15114 0,1.10621 -0.86649,2.64488 -1.92554,3.41927 -1.46412,1.0706 1.38139,1.35125 11.875,1.17123 12.63788,-0.2168 16.77504,0.6625 11.90678,2.53062 -2.66105,1.02114 -4.58821,6.62969 -3.18515,9.26961 2.1621,4.06804 5.07891,12.82754 5.07891,15.25248 0,3.6106 4.47566,5.37174 12.05426,4.74326 3.68266,-0.30539 6.69574,-0.21227 6.69574,0.20695 0,2.63311 -4.74007,6.50928 -10.67591,8.73016 -12.53278,4.68911 -15.57409,8.14291 -15.57409,17.68636 0,3.27392 -0.64245,5.22694 -1.875,5.69991 -3.22359,1.23701 -2.2912,5.45204 1.20603,5.45204 3.66551,0 6.29432,3.87465 4.11047,6.0585 -0.79283,0.79283 -4.84462,1.47628 -9.004,1.51878 -14.67279,0.14993 -25.88969,1.79862 -27.53373,4.04697 -2.28795,3.12896 -4.18405,2.59214 -4.63325,-1.31175 -0.64111,-5.57191 -6.04861,-5.18841 -19.70241,1.3973 l -11.58547,5.58809 -11.70643,-7.08645 c -10.38739,-6.28797 -11.68102,-7.46548 -11.48104,-10.4504 0.28682,-4.28085 -3.48218,-8.49183 -7.67641,-8.5766 l -3.24376,-0.0656 2.8125,-1.9619 c 1.54687,-1.07905 2.83039,-3.15892 2.85225,-4.62193 0.0219,-1.46303 0.85609,-3.73889 1.85382,-5.05749 2.27959,-3.01266 0.88365,-4.91938 -6.18495,-8.448 -2.796,-1.39575 -6.03762,-3.74527 -7.20363,-5.22114 -3.87795,-4.90847 -5.37999,-1.01617 -5.37999,13.9415 0,13.12631 0.0553,13.38296 2.9675,13.7949 2.87401,0.40653 2.80905,0.58374 -2.06184,5.625 -5.5967,5.79244 -8.00645,12.8424 -4.80907,14.06935 1.29903,0.49849 1.7266,1.81301 1.32101,4.06146 -0.32983,1.82844 -0.73046,12.32444 -0.89031,23.32444 l -0.29064,20 -9.02391,4.375 c -15.06506,7.3039 -19.12141,12.88218 -22.17518,30.49525 -0.46443,2.67864 -1.6943,6.16735 -2.73306,7.7527 -1.09657,1.67356 -1.71374,4.82392 -1.47158,7.51167 0.55103,6.11598 -1.92015,6.84274 -5.16689,1.51958 z m -25.44198,-88.00296 c 4.58409,-3.15719 6.73747,-5.57458 7.31727,-8.21438 0.45187,-2.05735 0.55318,-4.00902 0.22513,-4.33707 -2.64183,-2.64184 -18.39145,9.95876 -18.39145,14.71421 0,3.53472 3.62613,2.81185 10.84905,-2.16276 z M 332.93029,386.0759 c 12.39526,-5.08808 13.35543,-6.03513 6.11882,-6.03513 -6.7289,0 -12.2746,2.10549 -17.70985,6.72376 -3.59686,3.05622 -3.63399,3.18817 -0.90897,3.23129 1.56256,0.0247 7.18756,-1.73924 12.5,-3.91992 z m 172.32462,146.63778 c -2.87004,-2.99569 -3.20591,-4.10645 -2.37878,-7.86687 0.89132,-4.0522 6.59795,-12.30604 8.50829,-12.30604 0.45736,0 0.48726,2.67188 0.0665,5.9375 -0.42081,3.26563 -0.73921,8.28287 -0.70755,11.14945 0.0736,6.66029 -1.31564,7.4414 -5.48841,3.08596 z m -344.94519,-8.6793 c -2.54599,-2.81329 -2.65638,-3.99361 -0.37352,-3.99361 2.56281,0 5.17942,3.59864 3.69555,5.08251 -0.80208,0.80208 -1.95175,0.42524 -3.32203,-1.0889 z m 351.68654,-21.49361 c -0.98551,-3.18355 -1.13141,-13.92566 -0.22185,-16.33281 1.04675,-2.77023 1.22757,-2.5346 2.02269,2.63574 0.48023,3.12284 0.31505,7.62284 -0.3671,10 -0.68215,2.37713 -1.32733,4.04082 -1.43374,3.69707 z m -32.532,-16.25 c 0,-0.6875 0.5957,-1.25 1.32377,-1.25 0.72808,0 0.97613,0.5625 0.55123,1.25 -0.4249,0.6875 -1.0206,1.25 -1.32378,1.25 -0.30317,0 -0.55122,-0.5625 -0.55122,-1.25 z m -347.5,-22.35246 c 0,-0.6875 0.5625,-1.59764 1.25,-2.02254 0.6875,-0.4249 1.25,-0.21004 1.25,0.47746 0,0.6875 -0.5625,1.59764 -1.25,2.02254 -0.6875,0.4249 -1.25,0.21004 -1.25,-0.47746 z m 288.13466,-57.6319 c -2.97846,-4.81925 11.93645,-7.98025 16.43379,-3.4829 1.18676,1.18675 1.74776,2.56772 1.24666,3.06881 -1.68136,1.68137 -16.68012,2.03265 -17.68045,0.41409 z m -224.38466,-11.69 c 0,-0.92089 -1.40625,-2.31508 -3.125,-3.0982 -4.06207,-1.8508 -3.95868,-3.673 0.3125,-5.50734 1.89062,-0.81197 3.59386,-1.56564 3.78497,-1.67484 0.19111,-0.1092 -0.23931,-1.74189 -0.95649,-3.62822 -1.25905,-3.31156 -1.40942,-3.36058 -4.36599,-1.42336 -3.51732,2.30464 -5.64999,2.57571 -5.64999,0.71813 0,-1.79826 7.99679,-8.62993 13.51959,-11.54979 2.53297,-1.33917 5.49345,-3.21722 6.57884,-4.17344 2.99007,-2.63424 7.40157,-2.22439 7.40157,0.68765 0,1.33442 -0.51548,2.74481 -1.14551,3.13419 -1.26026,0.77888 -0.98893,8.24725 0.38009,10.46238 0.4916,0.79542 2.38861,1.09006 4.41229,0.68533 4.50206,-0.90042 6.08703,1.43276 2.32564,3.42349 -1.56613,0.82887 -5.14088,3.37641 -7.94389,5.66119 -4.32929,3.52889 -12.60105,7.95719 -14.86347,7.95719 -0.36583,0 -0.66515,-0.75346 -0.66515,-1.67436 z m 6.25,-19.57564 c 0,-0.6875 -0.5293,-1.25 -1.17623,-1.25 -0.64693,0 -1.52387,0.5625 -1.94877,1.25 -0.4249,0.6875 0.1044,1.25 1.17623,1.25 1.07182,0 1.94877,-0.5625 1.94877,-1.25 z m 191.03264,11.50639 c -5.50837,-0.47494 -8.18053,-2.9551 -5.54261,-5.14437 2.12116,-1.76041 6.53367,-0.82017 10.59983,2.25864 3.47898,2.63422 1.97554,3.49211 -5.05722,2.88573 z m 79.58051,-5.26949 c -2.20822,-2.44005 -2.1889,-2.60403 0.66471,-5.64155 3.66143,-3.89742 5.42613,-2.41143 4.29521,3.61683 -0.9758,5.20142 -1.78581,5.53208 -4.95992,2.02472 z m -256.14634,-8.14721 c -3.56711,-5.4441 0.026,-7.49111 5.35555,-3.05103 1.72395,1.43624 2.64824,3.23498 2.22673,4.33341 -1.12027,2.91939 -5.29141,2.21393 -7.58228,-1.28238 z m 21.15273,-1.84852 c -0.4279,-0.69235 0.12567,-1.6056 1.23014,-2.02942 2.39331,-0.9184 3.72715,0.0936 2.57672,1.95509 -1.03798,1.67947 -2.79364,1.71375 -3.80686,0.0743 z"
         id="path4208"
         inkscape:connector-curvature="0" />
      <path
         style="fill:#8f8f8f"
         d="m 392.37525,788.97867 c -3.86161,-1.15664 -7.91099,-6.82797 -7.91099,-11.07971 0,-1.99237 -1.40625,-5.52855 -3.125,-7.85819 -1.71875,-2.32964 -3.125,-5.19315 -3.125,-6.36336 0,-1.17021 -2.10938,-3.94115 -4.6875,-6.15763 -5.76333,-4.95489 -10.60962,-11.3228 -14.2537,-18.72901 -3.16431,-6.43113 -6.2504,-10.5574 -16.3713,-21.88938 -3.95313,-4.42616 -7.1875,-9.12848 -7.1875,-10.4496 0,-2.56627 -7.78404,-10.16102 -10.41426,-10.16102 -0.86749,0 -2.85724,-0.98437 -4.42164,-2.1875 -10.92108,-8.39895 -16.4141,-13.35069 -16.4141,-14.79661 0,-0.92287 -1.0176,-2.22254 -2.26134,-2.88817 -2.94,-1.57343 -12.85243,-11.87783 -17.55842,-18.25272 -2.03006,-2.75 -5.99485,-7.46171 -8.81064,-10.47048 -2.81578,-3.00876 -5.1196,-5.90866 -5.1196,-6.44423 0,-0.53556 -2.01321,-3.3834 -4.4738,-6.32854 -2.46059,-2.94513 -5.80949,-7.99065 -7.44201,-11.21228 -1.63252,-3.22162 -3.76998,-6.16516 -4.7499,-6.5412 -0.97993,-0.37602 -3.05019,-4.8056 -4.60059,-9.84348 -2.52314,-8.19869 -2.82042,-11.78294 -2.8333,-34.15979 l -0.0144,-25 3.72812,-8.125 c 2.05047,-4.46875 4.11183,-9.67188 4.58082,-11.5625 0.46897,-1.89063 1.68571,-3.4375 2.70386,-3.4375 1.10864,0 1.85119,-1.17579 1.85119,-2.93126 0,-1.6122 1.13352,-3.9571 2.51895,-5.21089 1.38542,-1.25379 2.85222,-4.2941 3.25955,-6.75624 2.30476,-13.93117 10.65569,-21.1614 18.74404,-16.22859 2.14365,1.30734 4.85668,2.37698 6.02896,2.37698 1.17229,0 4.15129,2.25 6.62001,5 2.46874,2.75 5.26249,5 6.20834,5 0.94586,0 4.08796,-1.20946 6.98245,-2.68769 4.13615,-2.11234 7.64159,-2.7144 16.37566,-2.8125 13.98186,-0.15704 15.57188,-1.65734 10.10966,-9.53931 -1.99917,-2.88481 -4.49836,-5.54538 -5.55375,-5.91236 -7.46856,-2.59699 -16.52565,-7.86845 -17.24936,-10.03959 -0.7271,-2.18131 2.60338,-1.8556 8.73455,0.85421 8.11755,3.58775 18.2666,7.22959 26.59594,9.54358 15.0069,4.16908 35.24951,12.75391 38.061,16.14155 0.89106,1.07366 2.20715,1.95211 2.92464,1.95211 2.60283,0 20.42416,11.91772 26.82686,17.94002 7.02679,6.60932 8.51247,11.58343 4.71359,15.78115 -1.66193,1.8364 -1.28868,2.51134 3.69047,6.67339 5.7678,4.82129 11.90844,15.22723 11.90844,20.18009 0,1.57807 0.78901,3.52406 1.75337,4.3244 0.99862,0.82879 2.12554,5.16115 2.61798,10.0646 0.52105,5.18843 1.50546,8.85534 2.4774,9.22831 1.01944,0.3912 1.61279,2.91785 1.61279,6.86778 0,5.25596 -0.57295,6.79782 -3.60577,9.70345 -1.98317,1.9 -3.60577,4.29742 -3.60577,5.32761 0,1.03019 -1.26563,3.22571 -2.8125,4.87895 -1.98418,2.12061 -2.8125,4.53726 -2.8125,8.20556 0,4.93699 -0.20233,5.21927 -4.00474,5.58708 -5.05707,0.48919 -9.98449,-1.89816 -8.00446,-3.87819 2.11172,-2.11172 1.6605,-3.3842 -1.20004,-3.3842 -2.01539,0 -2.40957,0.5503 -1.79076,2.5 0.46111,1.45283 0.22462,2.5 -0.56458,2.5 -1.25586,0 -1.0587,2.33576 0.76499,9.0625 0.32619,1.20313 1.33003,2.1875 2.23076,2.1875 3.3627,0 4.39384,3.11318 3.30744,9.98567 -0.80206,5.07388 -1.85351,7.27691 -4.33621,9.08543 -1.80256,1.31307 -3.2774,3.01285 -3.2774,3.77726 0,0.76442 -1.51394,2.97005 -3.3643,4.90142 -2.83503,2.95913 -3.17918,4.03541 -2.1875,6.84126 1.32802,3.75756 4.3018,5.40845 4.3018,2.38812 0,-2.5098 2.0018,-2.58043 2.95204,-0.10412 1.10801,2.88745 3.04656,2.23701 5.0858,-1.70645 1.01862,-1.96979 3.73841,-4.47658 6.04397,-5.57064 2.30556,-1.09406 9.64284,-7.4048 16.30506,-14.02385 6.66222,-6.61906 12.11313,-11.1837 12.11313,-10.14364 0,4.41754 9.62126,8.2162 11.81594,4.66515 0.3924,-0.63493 3.65997,-2.11073 7.26126,-3.27955 3.60129,-1.16882 8.65349,-3.2821 11.22712,-4.69616 l 4.67932,-2.57102 3.13318,2.94347 c 1.72324,1.61891 3.13318,4.26402 3.13318,5.87803 0,4.44977 6.71041,18.13854 10.44589,21.3089 3.84742,3.26535 4.19432,7.11915 1.20508,13.38766 -2.51296,5.26971 -1.69936,6.59146 2.40285,3.9036 3.57874,-2.34489 5.133,-1.37236 3.2951,2.06178 -1.03997,1.94321 -0.7708,3.03086 1.29398,5.22872 3.14106,3.34351 3.27921,5.42447 0.55959,8.42962 -1.57937,1.74518 -1.71734,2.66033 -0.60344,4.00249 2.22,2.67495 0.86614,4.62563 -10.2108,14.712 -25.5844,23.29648 -35.55415,30.665 -82.35775,60.86966 -14.97918,9.6668 -16.20796,10.21843 -22.5,10.10063 -3.66053,-0.0685 -7.8768,-0.4904 -9.36951,-0.9375 z m -34.64819,-97.10456 c 0.7633,-1.00834 2.31017,-1.83334 3.4375,-1.83334 1.12734,0 2.0497,-0.5625 2.0497,-1.25 0,-0.6875 -1.43945,-1.25 -3.19878,-1.25 -1.75932,0 -2.86856,0.53428 -2.46498,1.18729 1.00831,1.63149 -3.70125,3.97792 -6.12069,3.0495 -1.08105,-0.41485 -1.96555,-1.46142 -1.96555,-2.3257 0,-1.88417 -9.36078,-5.66109 -14.03053,-5.66109 -4.70755,0 -5.33645,1.95812 -1.98984,6.19556 2.86641,3.62945 6.02037,4.96767 6.02037,2.55444 0,-1.88911 2.42902,-1.49955 4.679,0.75043 2.41227,2.41227 11.39436,1.47524 13.5838,-1.41709 z m -1.44138,-175.73834 c 2.21937,-2.06434 -2.68551,-5.23886 -8.27703,-5.35706 -4.2059,-0.0889 -5.43937,0.36787 -5.79901,2.14757 -0.98563,4.87736 0.61737,6.07309 6.93282,5.1714 3.27074,-0.46697 6.48519,-1.34983 7.14322,-1.96191 z m -147.11047,91.25106 -5.91405,-5.06664 -1.47409,3.23529 c -1.97857,4.34248 -3.48117,4.08965 -8.94412,-1.50491 -5.32649,-5.45482 -5.64951,-6.5098 -1.99318,-6.5098 2.24974,0 2.50994,-0.50315 1.77761,-3.4375 -0.47184,-1.89062 -1.58227,-4.28125 -2.46762,-5.3125 -2.15912,-2.51494 -3.59825,-8.16521 -3.8205,-15 -0.1006,-3.09375 -0.6233,-7.16664 -1.16154,-9.05085 -0.763,-2.671 -0.50644,-3.60705 1.16439,-4.24821 3.20291,-1.22908 8.14812,5.88622 12.18465,17.53157 1.89062,5.45444 3.4375,10.95062 3.4375,12.21373 0,2.72265 8.32082,12.30376 10.68533,12.30376 2.15475,0 7.1987,7.11735 6.19494,8.74147 -1.36228,2.20422 -3.60337,1.30137 -9.66932,-3.89541 z m -43.89762,-26.68102 c -1.11461,-2.90463 1.41348,-3.51114 2.91793,-0.70005 1.06858,1.99666 0.97757,2.53501 -0.42854,2.53501 -0.98189,0 -2.10211,-0.82574 -2.48939,-1.83496 z m -8.31333,-9.48882 c 0,-0.72807 0.5625,-0.97612 1.25,-0.55122 0.6875,0.4249 1.25,1.0206 1.25,1.32378 0,0.30317 -0.5625,0.55122 -1.25,0.55122 -0.6875,0 -1.25,-0.5957 -1.25,-1.32378 z m 56.29103,-10.14702 c -4.34564,-7.12486 -4.55078,-11.81019 -0.83813,-19.14243 3.35469,-6.62528 4.30779,-13.61458 2.0471,-15.01177 -2.2315,-1.37915 -1.33252,-3.01877 2.8125,-5.12964 6.5547,-3.338 16.00459,-10.62554 15.28602,-11.78821 -0.36435,-0.58952 -3.4756,0.3411 -6.9139,2.06805 -3.43829,1.72696 -7.50203,2.96215 -9.03053,2.74486 -2.44128,-0.34704 -2.732,-1.0306 -2.39165,-5.62347 0.31005,-4.18409 -0.11046,-5.49489 -2.10532,-6.5625 -4.10764,-2.19834 -7.33598,-1.53968 -11.84114,2.41591 -2.34906,2.0625 -4.83507,3.75 -5.52447,3.75 -1.98546,0 -3.09668,-12.97454 -1.59034,-18.56866 0.75408,-2.80044 2.31198,-5.34023 3.51421,-5.72908 2.68114,-0.86717 7.21292,-7.62585 8.32494,-12.41576 0.7793,-3.35674 0.6273,-3.53684 -2.35361,-2.78869 -3.51071,0.88114 -4.20016,-0.60061 -1.3717,-2.94802 1.00816,-0.8367 2.98572,-1.13478 4.44849,-0.6705 1.52741,0.48477 4.47156,-0.0364 7.00987,-1.24092 3.55221,-1.68563 4.09996,-2.40985 2.90849,-3.84547 -1.91671,-2.3095 -6.38216,-1.23722 -14.01314,3.36494 -3.27595,1.97569 -6.21501,3.59216 -6.53125,3.59216 -0.31623,0 -0.23747,-1.6875 0.17503,-3.75 1.25133,-6.25664 -4.10509,-4.70419 -12.78167,3.70452 -4.24536,4.11428 -5.58706,6.27593 -5.18872,8.35972 0.2955,1.54577 -0.1356,3.06871 -0.95799,3.3843 -1.89006,0.72527 -1.24877,-8.57224 1.48409,-21.51672 1.61508,-7.64993 2.97062,-10.48268 8.07518,-16.875 3.37387,-4.225 7.1012,-9.29155 8.28296,-11.259 4.5905,-7.64247 14.79514,-18.58812 18.99344,-20.37263 3.10198,-1.31852 6.50046,-1.64354 11.48765,-1.09864 9.65924,1.05536 13.54256,-0.0439 13.54256,-3.83348 0,-2.18573 1.08867,-3.44267 4.0625,-4.6904 2.23437,-0.93747 4.625,-1.2979 5.3125,-0.80094 2.65323,1.91786 8.40611,2.57108 10.11956,1.14904 0.96549,-0.80129 1.75544,-3.2316 1.75544,-5.40069 0,-4.30383 2.97771,-9.50008 5.44402,-9.50008 0.85375,0 8.83119,-3.65596 17.72763,-8.12436 8.89645,-4.4684 18.15041,-8.4569 20.56436,-8.86334 2.41394,-0.40643 9.0424,-2.18087 14.7299,-3.94319 9.56476,-2.96372 10.86818,-3.08622 17.36571,-1.63214 8.52503,1.90782 20.41838,9.16498 20.41838,12.45901 0,3.60767 -6.96271,6.22165 -14.54178,5.45935 -7.71415,-0.77589 -13.33762,0.94941 -19.20822,5.89315 -4.29331,3.61547 -4.31665,3.68583 -1.25,3.76794 l 3.125,0.0837 -3.4375,1.86487 c -4.01944,2.18058 -4.52076,3.60989 -0.9375,2.67285 3.43024,-0.89703 3.13661,0.92997 -0.625,3.88886 -1.71875,1.35197 -3.125,2.81297 -3.125,3.24666 0,2.16465 6.64795,2.90651 15.73246,1.75563 8.3086,-1.05258 10.79319,-0.92067 15.51754,0.82386 3.09375,1.1424 7.75656,2.67317 10.36181,3.4017 5.71388,1.59783 5.44414,3.27776 -1.07507,6.69543 -4.03118,2.11332 -4.98517,3.33282 -5.32133,6.80229 -0.22526,2.32505 -1.20964,5.3696 -2.1875,6.76569 -3.24442,4.63206 -1.56745,5.37919 6.97209,3.10615 1.19606,-0.31836 1.80855,0.31449 1.6915,1.74773 -0.17403,2.13085 2.55061,-0.0433 17.46215,-13.93374 1.94075,-1.80787 3.83596,-4.82366 4.21159,-6.70175 0.59678,-2.98395 1.00211,-3.24389 3.21312,-2.0606 1.39159,0.74477 5.54325,1.10425 9.2259,0.79885 3.68266,-0.30539 6.69574,-0.21227 6.69574,0.20695 0,2.63311 -4.74007,6.50928 -10.67591,8.73016 -12.53278,4.68911 -15.57409,8.14291 -15.57409,17.68636 0,3.27392 -0.64245,5.22694 -1.875,5.69991 -3.22359,1.23701 -2.2912,5.45204 1.20603,5.45204 3.66551,0 6.29432,3.87465 4.11047,6.0585 -0.79283,0.79283 -4.84462,1.47628 -9.004,1.51878 -14.67279,0.14993 -25.88969,1.79862 -27.53373,4.04697 -2.2868,3.12739 -4.1839,2.59273 -4.63325,-1.30581 -0.31198,-2.7068 -1.18755,-3.57117 -4.14552,-4.09248 l -3.75,-0.66091 4.49572,-3.09502 4.49574,-3.09503 -11.37074,-0.2843 c -6.37572,-0.1594 -14.84531,-1.28094 -19.28037,-2.55309 -6.7159,-1.92638 -8.25888,-2.92107 -10.22358,-6.59071 -1.27266,-2.37704 -2.66741,-5.95444 -3.09945,-7.94976 -0.43202,-1.99533 -2.52278,-5.25073 -4.64612,-7.23423 l -3.86061,-3.60635 -2.81093,2.64073 c -1.83877,1.72744 -3.10201,2.16972 -3.6526,1.27886 -0.46292,-0.74904 -3.19415,-2.53692 -6.06937,-3.9731 -2.87523,-1.43618 -6.18169,-3.81877 -7.3477,-5.29464 -3.87795,-4.90853 -5.37999,-1.01623 -5.37999,13.94144 0,13.12631 0.0553,13.38296 2.9675,13.7949 2.8774,0.40701 2.81569,0.5778 -2.0324,5.625 -2.74994,2.86289 -5.36743,6.77512 -5.81664,8.69388 -0.44921,1.91873 -1.30434,3.18727 -1.90028,2.81896 -0.59594,-0.36831 -0.75184,2.28056 -0.34645,5.88637 1.55182,13.8027 0.87674,23.78656 -2.00167,29.60333 -3.93154,7.94495 -3.49949,10.36234 0.97346,5.44672 l 3.64525,-4.00599 0.82173,5.47974 c 0.45196,3.01387 0.4413,6.09531 -0.0237,6.84768 -0.46499,0.75236 -4.60099,3.06875 -9.19112,5.14752 -14.41221,6.52702 -19.01874,12.87715 -22.05814,30.40729 -0.46442,2.67864 -1.6943,6.16735 -2.73306,7.7527 -1.09656,1.67356 -1.71373,4.82392 -1.47157,7.51167 0.55103,6.11598 -1.92015,6.84274 -5.16689,1.51958 z m 291.99962,-28.35629 c -2.87004,-2.99569 -3.20591,-4.10645 -2.37878,-7.86687 0.89132,-4.0522 6.59795,-12.30604 8.50829,-12.30604 0.45736,0 0.48726,2.67188 0.0665,5.9375 -0.42081,3.26563 -0.73921,8.28287 -0.70755,11.14945 0.0736,6.66029 -1.31564,7.4414 -5.48841,3.08596 z m -344.94519,-8.6793 c -2.54599,-2.81329 -2.65638,-3.99361 -0.37352,-3.99361 2.56281,0 5.17942,3.59864 3.69555,5.08251 -0.80208,0.80208 -1.95175,0.42524 -3.32203,-1.0889 z m 0.9957,-10.29836 c -0.44351,-0.71762 -0.0971,-2.15941 0.76983,-3.20399 1.40724,-1.69561 1.69405,-1.68869 2.67527,0.0646 1.81959,3.25142 -1.50403,6.28005 -3.4451,3.13933 z m 350.69084,-11.19525 c -0.98551,-3.18355 -1.13141,-13.92566 -0.22185,-16.33281 1.04675,-2.77023 1.22757,-2.5346 2.02269,2.63574 0.48023,3.12284 0.31505,7.62284 -0.3671,10 -0.68215,2.37713 -1.32733,4.04082 -1.43374,3.69707 z m -32.532,-16.25 c 0,-0.6875 0.5957,-1.25 1.32377,-1.25 0.72808,0 0.97613,0.5625 0.55123,1.25 -0.4249,0.6875 -1.0206,1.25 -1.32378,1.25 -0.30317,0 -0.55122,-0.5625 -0.55122,-1.25 z M 291.05792,459.01353 c -10.50187,-6.4641 -13.20774,-9.44202 -10.7828,-11.86696 0.44598,-0.44597 3.02242,1.18714 5.72542,3.62913 6.70425,6.05688 15.20021,9.58791 22.83872,9.49206 l 6.25,-0.0784 -6.25,3.03929 c -3.4375,1.67161 -6.25,3.00405 -6.25,2.96099 0,-0.0431 -5.1891,-3.27232 -11.53134,-7.17608 z m -159.09366,4.92478 c 0,-0.6875 0.5625,-1.59764 1.25,-2.02254 0.6875,-0.4249 1.25,-0.21004 1.25,0.47746 0,0.6875 -0.5625,1.59764 -1.25,2.02254 -0.6875,0.4249 -1.25,0.21004 -1.25,-0.47746 z m 121.875,-0.14754 c -0.4249,-0.6875 -0.17685,-1.25 0.55122,-1.25 0.72808,0 1.32378,0.5625 1.32378,1.25 0,0.6875 -0.24805,1.25 -0.55123,1.25 -0.30317,0 -0.89887,-0.5625 -1.32377,-1.25 z m 35.28022,-11.4181 c -1.18537,-0.66338 -2.15522,-2.58442 -2.15522,-4.26901 0,-2.66711 0.56532,-3.06289 4.375,-3.06289 3.81667,0 4.375,0.39319 4.375,3.08103 0,3.71564 -3.50923,5.97763 -6.59478,4.25087 z m -19.65522,-12.91293 c 0,-0.31956 1.06877,-1.153 2.37505,-1.85209 1.798,-0.96227 2.54772,-0.8211 3.08576,0.58101 0.50958,1.32791 -0.16264,1.85211 -2.37504,1.85211 -1.69717,0 -3.08577,-0.26146 -3.08577,-0.58103 z m 150.63466,-33.15333 c -2.97846,-4.81925 11.93645,-7.98025 16.43379,-3.4829 1.18676,1.18675 1.74776,2.56772 1.24666,3.06881 -1.68136,1.68137 -16.68012,2.03265 -17.68045,0.41409 z m -224.38466,-11.69 c 0,-0.92089 -1.40625,-2.31508 -3.125,-3.0982 -4.06207,-1.8508 -3.95868,-3.673 0.3125,-5.50734 1.89062,-0.81197 3.59386,-1.56564 3.78497,-1.67484 0.19111,-0.1092 -0.23931,-1.74189 -0.95649,-3.62822 -1.25905,-3.31156 -1.40942,-3.36058 -4.36599,-1.42336 -3.51732,2.30464 -5.64999,2.57571 -5.64999,0.71813 0,-1.79826 7.99679,-8.62993 13.51959,-11.54979 2.53297,-1.33917 5.49345,-3.21722 6.57884,-4.17344 2.99007,-2.63424 7.40157,-2.22439 7.40157,0.68765 0,1.33442 -0.51548,2.74481 -1.14551,3.13419 -1.26026,0.77888 -0.98893,8.24725 0.38009,10.46238 0.4916,0.79542 2.38861,1.09006 4.41229,0.68533 4.50206,-0.90042 6.08703,1.43276 2.32564,3.42349 -1.56613,0.82887 -5.14088,3.37641 -7.94389,5.66119 -4.32929,3.52889 -12.60105,7.95719 -14.86347,7.95719 -0.36583,0 -0.66515,-0.75346 -0.66515,-1.67436 z m 6.25,-19.57564 c 0,-0.6875 -0.5293,-1.25 -1.17623,-1.25 -0.64693,0 -1.52387,0.5625 -1.94877,1.25 -0.4249,0.6875 0.1044,1.25 1.17623,1.25 1.07182,0 1.94877,-0.5625 1.94877,-1.25 z m 168.814,13.02461 c -4.56191,-7.19339 -4.60071,-7.5222 -1.0015,-8.48675 6.67172,-1.78795 13.29955,0.0586 7.79374,2.17137 -2.83852,1.08924 -4.74083,6.94621 -2.95498,9.09802 0.80024,0.96424 1.12239,2.08577 0.71586,2.49229 -0.40651,0.40652 -2.45542,-1.9672 -4.55312,-5.27493 z m 22.21864,-1.51822 c -5.50837,-0.47494 -8.18053,-2.9551 -5.54261,-5.14437 2.12116,-1.76041 6.53367,-0.82017 10.59983,2.25864 3.47898,2.63422 1.97554,3.49211 -5.05722,2.88573 z m 79.58051,-5.26949 c -2.20822,-2.44005 -2.1889,-2.60403 0.66471,-5.64155 3.66143,-3.89742 5.42613,-2.41143 4.29521,3.61683 -0.9758,5.20142 -1.78581,5.53208 -4.95992,2.02472 z m -256.14634,-8.14721 c -3.56711,-5.4441 0.026,-7.49111 5.35555,-3.05103 1.72395,1.43624 2.64824,3.23498 2.22673,4.33341 -1.12027,2.91939 -5.29141,2.21393 -7.58228,-1.28238 z m 21.15273,-1.84852 c -0.4279,-0.69235 0.12567,-1.6056 1.23014,-2.02942 2.39331,-0.9184 3.72715,0.0936 2.57672,1.95509 -1.03798,1.67947 -2.79364,1.71375 -3.80686,0.0743 z"
         id="path4206"
         inkscape:connector-curvature="0" />
      <path
         style="fill:#e76a1d"
         d="m 401.96426,786.48282 c 0,-1.26937 -0.77891,-3.94125 -1.73091,-5.9375 -0.952,-1.99625 -2.07436,-6.79975 -2.49415,-10.67444 -0.72763,-6.71603 -0.5771,-7.22689 3.22462,-10.94379 3.09238,-3.02336 3.65245,-4.23431 2.49416,-5.39259 -0.82155,-0.82156 -1.49372,-2.53179 -1.49372,-3.80054 0,-1.26875 -1.40625,-3.71308 -3.125,-5.43183 -3.6259,-3.62589 -4.37648,-10.51136 -1.14584,-10.51136 2.08955,0 1.95666,-2.66635 -0.13541,-2.71701 -0.67031,-0.0163 -2.22455,-0.5678 -3.45385,-1.2257 -1.2293,-0.65791 -4.74493,-0.81983 -7.8125,-0.35982 -4.66503,0.69957 -5.5774,1.2875 -5.5774,3.59404 0,1.5167 1.44219,4.01163 3.20487,5.54425 6.19723,5.38841 1.46173,9.05243 -9.13126,7.06518 -3.55485,-0.6669 -4.69301,-1.7334 -6.70574,-6.28352 -1.33331,-3.01415 -3.67715,-6.49551 -5.20853,-7.73635 -4.14248,-3.35653 -13.40934,-15.94246 -13.40934,-18.21209 0,-1.13366 1.7913,-2.56628 4.20466,-3.36277 2.31257,-0.76321 5.68085,-3.04444 7.48509,-5.06937 3.68012,-4.13032 5.27219,-4.61619 17.68525,-5.39725 4.8125,-0.30281 10.4375,-1.45589 12.5,-2.56238 2.0625,-1.1065 4.94765,-2.01527 6.41145,-2.01951 3.98274,-0.0112 16.55284,-6.04685 23.20331,-11.14067 16.27614,-12.46648 22.5435,-16.37912 30.88089,-19.27858 5.00624,-1.74099 9.75521,-3.98966 10.55329,-4.99705 1.13832,-1.43686 2.93281,-1.62621 8.32606,-0.87854 3.78125,0.52419 7.05999,0.47327 7.28609,-0.11312 1.09365,-2.83658 4.95775,-6.40554 6.1425,-5.67334 0.77243,0.4774 1.05722,2.88364 0.67687,5.71928 -0.54296,4.04812 -0.19794,5.18156 1.99399,6.55043 3.24351,2.02563 3.31345,3.26717 0.37166,6.59838 -3.77471,4.2744 -5.27647,11.32025 -3.08092,14.45484 1.64762,2.35231 1.64365,2.89357 -0.035,4.76475 -2.62335,2.92423 -2.25909,11.26866 0.53056,12.15406 1.17732,0.37366 3.01561,2.01484 4.08507,3.64704 1.06945,1.6322 3.65103,3.34245 5.73683,3.80057 4.04064,0.88747 4.40539,1.48031 2.63329,4.27996 -0.66839,1.05595 -0.63743,3.04199 0.0768,4.92035 1.09661,2.88433 0.31098,4.02042 -9.32477,13.48432 -8.01976,7.87673 -18.00562,15.27417 -41.98736,31.10382 -37.04082,24.44951 -43.85556,27.87399 -43.85556,22.03785 z m 29.55407,-59.58296 c 0.39909,-1.04002 0.0312,-2.72752 -0.81728,-3.75 -1.02804,-1.23873 -1.08664,-1.85909 -0.17559,-1.85909 0.75202,0 1.83852,-1.82812 2.41444,-4.0625 0.77877,-3.02139 1.82905,-4.15219 4.09825,-4.41244 7.65071,-0.87748 8.67611,-1.48566 8.67611,-5.14582 0,-4.32271 -1.65843,-5.78904 -7.79864,-6.89529 -4.4003,-0.79279 -5.02835,-0.47595 -10.73845,5.41726 -3.33565,3.44263 -7.56064,6.82801 -9.38886,7.52312 -4.60091,1.74926 -4.23358,5.33281 1.09261,10.65901 4.77549,4.77549 11.27559,6.07461 12.63741,2.52575 z m 0.44593,-18.10909 c 0,-0.6875 0.5625,-1.25 1.25,-1.25 0.6875,0 1.25,0.5625 1.25,1.25 0,0.6875 -0.5625,1.25 -1.25,1.25 -0.6875,0 -1.25,-0.5625 -1.25,-1.25 z m 24.70917,-13.13778 c 0.18379,-1.36797 -0.79231,-4.31534 -2.16912,-6.54972 -3.4967,-5.67463 -8.22233,-5.55725 -12.91238,0.32072 l -3.49732,4.38317 3.49732,1.39978 c 9.82442,3.93217 14.59417,4.07324 15.0815,0.44605 z M 349.36965,671.78314 c -1.66671,-1.79168 -4.3389,-3.76282 -5.9382,-4.38029 -2.44709,-0.94479 -2.8432,-1.86455 -2.5,-5.80488 l 0.40781,-4.6822 -5.3125,-0.38438 c -4.6532,-0.33666 -5.3125,-0.0651 -5.3125,2.1875 0,1.41454 -1.16264,3.73452 -2.58364,5.15552 -2.0538,2.0538 -2.27876,2.95101 -1.09695,4.375 1.22551,1.47665 0.91848,1.79136 -1.74767,1.79136 -1.7789,0 -5.83048,-0.8814 -9.0035,-1.95868 -3.17303,-1.07726 -7.27082,-1.86141 -9.10619,-1.74253 -5.61455,0.36362 -6.10791,0.0973 -8.27409,-4.46767 -1.29385,-2.72658 -5.38024,-6.80697 -10.67026,-10.65461 -6.21703,-4.52189 -9.34009,-7.8196 -11.36306,-11.9985 -1.53434,-3.16951 -3.82807,-6.0343 -5.09718,-6.36617 -1.37244,-0.3589 -2.30746,-1.73214 -2.30746,-3.38889 0,-1.53201 -1.125,-3.80359 -2.5,-5.04795 -1.375,-1.24436 -2.5,-3.20224 -2.5,-4.35084 0,-1.14861 -1.46192,-3.45205 -3.24874,-5.11877 -8.07747,-7.53461 -10.26529,-16.99473 -10.67424,-46.15539 -0.19505,-13.90809 -0.0591,-14.6998 4.18394,-24.375 l 4.38553,-10 6.11426,-0.625 c 5.85501,-0.5985 6.13106,-0.79991 6.51064,-4.75034 0.49737,-5.17641 2.3165,-5.894 17.59982,-6.94259 12.85948,-0.88227 15.12879,-1.92871 15.12879,-6.97626 0,-6.93501 10.93177,-13.39605 19.99082,-11.81525 10.07912,1.75882 12.53105,6.48659 6.52209,12.57579 -1.9179,1.9435 -4.71807,5.54885 -6.22261,8.01188 l -2.73551,4.47821 2.7851,5.52179 c 2.66613,5.28588 3.00827,5.51203 8.00885,5.29392 4.88891,-0.21325 5.2094,-0.0217 5,2.98849 -0.17358,2.4952 0.55596,3.48347 3.25381,4.40786 4.85455,1.66334 9.64745,-1.53539 9.64745,-6.43857 0,-4.06889 2.72154,-5.7433 6.25837,-3.85044 1.28,0.68502 3.34863,1.24897 4.59695,1.25321 1.24833,0.004 3.95718,0.90406 6.01968,1.99961 2.91258,1.54709 5.84519,1.82367 13.13228,1.2385 7.59786,-0.61011 10.68246,-0.27816 16.21866,1.74539 3.76001,1.37434 7.79357,2.19499 8.96347,1.82369 5.7476,-1.82423 18.56059,8.12842 18.56059,14.41717 0,2.57889 0.9535,4.33506 3.12683,5.75908 6.50144,4.25991 5.91171,13.4007 -1.22686,19.01588 -1.73248,1.36278 -3.14997,3.16129 -3.14997,3.99669 0,1.66944 -5.06655,7.44024 -6.5625,7.47469 -0.51563,0.0125 -0.9375,-0.75354 -0.9375,-1.70094 0,-0.94739 -1.26563,-2.58097 -2.8125,-3.63017 l -2.8125,-1.90765 3.61946,-1.40807 3.61946,-1.40806 -2.49569,-2.77426 c -1.37263,-1.52584 -2.83337,-3.73321 -3.24607,-4.90528 -0.4127,-1.17206 -2.88713,-3.3032 -5.49876,-4.73586 -2.61162,-1.43265 -6.47733,-3.70191 -8.59046,-5.0428 -8.27517,-5.25095 -28.6098,-3.0773 -43.65794,4.6668 -7.92469,4.0782 -8.37671,4.50745 -7.40724,7.03386 0.57894,1.50872 2.319,2.08403 6.30321,2.08403 4.03352,0 6.08451,0.69165 7.67877,2.58947 1.19638,1.42422 4.00338,3.36427 6.23776,4.31122 4.55659,1.93115 5.35312,4.97022 1.5625,5.9615 -4.33021,1.13237 -3.054,4.63781 1.68847,4.63781 5.7997,0 11.87399,2.31392 13.35918,5.08903 0.68468,1.27933 3.4853,2.92934 6.22361,3.6667 5.01386,1.35008 5.91504,2.82835 3.7811,6.20235 -0.69972,1.10635 -0.70719,2.3779 -0.0189,3.20732 0.6273,0.75584 1.50523,4.7122 1.95098,8.79192 0.44576,4.07973 1.59918,8.68082 2.56318,10.22466 3.0375,4.86458 -0.23008,11.36381 -4.86019,9.66692 -2.25541,-0.82659 -5.16786,1.36257 -4.10365,3.08452 0.54695,0.88499 2.29588,1.15727 4.42694,0.68921 2.85316,-0.62666 3.68081,-0.27584 4.35414,1.84561 1.37737,4.33975 -12.91014,17.58304 -22.77688,21.11218 -6.84861,2.44962 -8.39737,2.60236 -12.85262,1.26753 -3.86263,-1.15726 -5.41238,-1.171 -6.52555,-0.0579 -2.05266,2.05267 -2.63294,1.88037 -6.05449,-1.79775 z m -55.3614,-108.30936 c 5.69205,-2.49074 10.45601,-6.07857 10.45601,-7.87462 0,-0.90975 -1.6389,-3.44846 -3.64201,-5.64159 -2.80022,-3.06584 -4.75043,-4.02266 -8.4375,-4.13965 l -4.79549,-0.15215 -0.37684,7.99334 c -0.55495,11.77117 0.11463,12.73824 6.79583,9.81467 z m 78.89351,-9.98041 c 2.76185,-2.22489 1.69094,-3.03594 -4.00871,-3.03594 -5.4609,0 -7.95064,1.91868 -6.18884,4.76933 0.84617,1.36915 7.81714,0.18421 10.19755,-1.73339 z m -9.6875,-12.2026 c 0,-0.6875 -0.5625,-1.25 -1.25,-1.25 -0.6875,0 -1.25,0.5625 -1.25,1.25 0,0.6875 0.5625,1.25 1.25,1.25 0.6875,0 1.25,-0.5625 1.25,-1.25 z m 30,-9.92622 c 0,-3.52388 2.00999,-4.21887 4.94166,-1.70869 3.52786,3.02065 3.20674,4.13491 -1.19166,4.13491 -2.87866,0 -3.75,-0.56375 -3.75,-2.42622 z m -170.51867,-8.37242 c -0.54205,-1.41257 0.97753,-3.66786 4.89419,-7.26375 3.12418,-2.8683 5.33956,-5.55586 4.92306,-5.97236 -0.41649,-0.4165 -3.53784,0.63934 -6.93633,2.3463 -3.39849,1.70696 -7.42966,2.9258 -8.95816,2.70851 -2.44128,-0.34704 -2.732,-1.0306 -2.39165,-5.62347 0.31005,-4.18409 -0.11046,-5.49489 -2.10532,-6.5625 -4.10764,-2.19834 -7.33598,-1.53968 -11.84114,2.41591 -2.34906,2.0625 -4.83507,3.75 -5.52447,3.75 -1.98546,0 -3.09668,-12.97454 -1.59034,-18.56866 0.75408,-2.80044 2.31198,-5.34023 3.51421,-5.72908 2.68114,-0.86717 7.21292,-7.62585 8.32495,-12.41576 0.77929,-3.35674 0.62729,-3.53684 -2.35362,-2.78869 -3.51071,0.88114 -4.20016,-0.60061 -1.3717,-2.94802 1.00816,-0.8367 2.98572,-1.13478 4.44849,-0.6705 1.53392,0.48685 4.4887,-0.0445 7.07687,-1.2727 3.88225,-1.84225 4.21442,-2.33752 2.63031,-3.92163 -1.58043,-1.58042 -2.4826,-1.58241 -7.03056,-0.0155 -5.77068,1.98815 -7.29234,1.18053 -4.56483,-2.4228 0.98736,-1.30441 1.81309,-2.86712 1.83496,-3.4727 0.0663,-1.83551 -8.24036,0.1085 -15.02528,3.51635 -3.51471,1.76533 -6.90666,3.20969 -7.53767,3.20969 -0.63102,0 -1.1473,-2.48816 -1.1473,-5.52925 0,-4.41091 0.91577,-6.74954 4.52772,-11.5625 6.57034,-8.75506 11.30273,-13.5979 20.59291,-21.07349 l 8.24563,-6.63506 12.37937,1.10556 c 6.80865,0.60805 13.94031,1.12562 15.84812,1.15015 2.84506,0.0366 3.60454,0.72353 4.22395,3.8206 0.41536,2.0768 1.24505,4.07875 1.84375,4.44878 0.5987,0.37001 1.08855,2.91672 1.08855,5.65936 0,2.74264 1.059,7.1785 2.35335,9.85747 1.86981,3.87008 2.05389,5.33445 0.89589,7.12713 -2.71434,4.20201 -4.1342,10.98214 -3.48282,16.63125 1.49806,12.99206 0.79367,22.9836 -2.02136,28.67229 -1.50978,3.05101 -2.74506,6.28538 -2.74506,7.1875 0,0.90211 -0.43459,1.64021 -0.96575,1.64021 -0.53116,0 -2.05198,2.01702 -3.3796,4.48226 -2.34718,4.35846 -14.83336,16.76774 -16.87165,16.76774 -0.55854,0 -1.36929,-0.92189 -1.80167,-2.04864 z m 168.64367,0.1285 c -2.0625,-0.94441 -5.27317,-1.74247 -7.13484,-1.77349 -3.58976,-0.0597 -30.93502,-13.55006 -36.56306,-18.0377 -2.3696,-1.88946 -3.54633,-4.24785 -4.0709,-8.15887 -0.71796,-5.35279 -0.65685,-5.4765 2.26546,-4.58624 1.65184,0.50323 5.3093,1.40224 8.12769,1.99779 5.59872,1.18309 18.71164,6.9214 21.84039,9.55754 1.08061,0.91046 5.87972,3.5607 10.66471,5.88941 4.78497,2.32871 10.51021,5.75725 12.72275,7.61898 4.54039,3.82047 5.61926,8.83788 1.628,7.57111 -1.31715,-0.41805 -2.75659,-0.1747 -3.19878,0.54076 -0.98802,1.59866 -1.56096,1.54218 -6.28142,-0.61929 z M 274.033,514.00484 c -2.61713,-2.89188 -2.67404,-9.43021 -0.1045,-11.99978 2.36097,-2.36098 6.82098,-2.54908 9.5268,-0.40179 3.21307,2.54986 9.76865,12.41046 9.0374,13.59366 -0.37182,0.60161 -4.2119,1.09384 -8.53353,1.09384 -6.02472,0 -8.34002,-0.5332 -9.92622,-2.28593 z m 63.78525,-61.51647 c -1.09985,-1.57026 -1.79785,-3.18523 -1.55112,-3.58881 0.24675,-0.40359 -4.97983,-0.85279 -11.61462,-0.99823 -7.21,-0.15805 -15.24544,-1.1852 -19.9729,-2.55308 -6.70528,-1.94018 -8.26197,-2.94674 -10.22357,-6.61058 -1.27267,-2.37704 -2.66742,-5.95444 -3.09946,-7.94976 -0.43202,-1.99533 -2.50557,-5.23465 -4.60786,-7.19849 -3.10393,-2.8995 -3.53934,-3.91163 -2.31656,-5.38498 1.23456,-1.48755 0.75388,-2.2728 -2.66855,-4.35935 -2.29589,-1.39974 -5.70678,-2.54708 -7.57975,-2.54965 -5.22484,-0.007 -7.36572,-5.11664 -5.37891,-12.83741 0.84321,-3.27675 1.75839,-6.112 2.03371,-6.30056 0.27533,-0.18855 2.57245,-1.86695 5.1047,-3.72976 2.53225,-1.86282 5.08822,-3.38694 5.67992,-3.38694 0.59172,0 3.1333,-2.17125 5.64799,-4.825 5.16664,-5.45235 12.4619,-8.42947 31.16461,-12.71793 12.87783,-2.95284 18.52838,-2.63609 18.52838,1.03861 0,4.02805 -3.83197,7.7439 -11.85343,11.49423 -12.58367,5.88334 -17.70705,15.96194 -7.50889,14.77137 5.16281,-0.60273 5.49711,0.41464 1.23732,3.7654 -1.71875,1.35196 -3.125,2.81296 -3.125,3.24666 0,2.16464 6.64795,2.90651 15.73246,1.75563 8.3086,-1.05258 10.79319,-0.92067 15.51754,0.82385 3.09375,1.14241 7.75656,2.67318 10.36181,3.40171 5.71388,1.59783 5.44414,3.27775 -1.07507,6.69542 -4.03118,2.11333 -4.98517,3.33283 -5.32133,6.8023 -0.22526,2.32505 -1.20964,5.3696 -2.1875,6.76569 -3.24442,4.63206 -1.56745,5.37919 6.97209,3.10615 1.21405,-0.32316 1.80596,0.31901 1.67916,1.82175 -0.14313,1.69635 0.17639,1.94861 1.1875,0.9375 2.48067,-2.48067 4.63334,-1.51043 4.63334,2.08831 0,2.29281 -1.27335,4.58899 -3.75,6.76221 -2.31234,2.02904 -3.75,4.50358 -3.75,6.45458 0,3.96395 -0.59958,4.31636 -9.02893,5.30707 -6.21287,0.7302 -7.05792,0.53503 -8.86708,-2.04791 z m -48.69877,-0.11575 c -1.18537,-0.66333 -2.15522,-2.58437 -2.15522,-4.26896 0,-2.66711 0.56532,-3.06289 4.375,-3.06289 3.81667,0 4.375,0.39319 4.375,3.08103 0,3.71564 -3.50923,5.97763 -6.59478,4.25087 z m 79.75854,-68.51918 c -0.80906,-1.30909 4.13109,-4.43453 5.24643,-3.3192 0.82795,0.828 -2.02043,4.50653 -3.48948,4.50653 -0.56274,0 -1.35337,-0.53428 -1.75695,-1.18728 z"
         id="path4204"
         inkscape:connector-curvature="0" />
      <path
         style="fill:#707070"
         d="m 401.96426,786.48282 c 0,-1.26937 -0.77891,-3.94125 -1.73091,-5.9375 -0.952,-1.99625 -2.07436,-6.79975 -2.49415,-10.67444 -0.72763,-6.71603 -0.5771,-7.22689 3.22462,-10.94379 3.09238,-3.02336 3.65245,-4.23431 2.49416,-5.39259 -0.82155,-0.82156 -1.49372,-2.53179 -1.49372,-3.80054 0,-1.26875 -1.40625,-3.71308 -3.125,-5.43183 -3.6259,-3.62589 -4.37648,-10.51136 -1.14584,-10.51136 2.08955,0 1.95666,-2.66635 -0.13541,-2.71701 -0.67031,-0.0163 -2.22455,-0.5678 -3.45385,-1.2257 -1.2293,-0.65791 -4.74493,-0.81983 -7.8125,-0.35982 -4.66503,0.69957 -5.5774,1.2875 -5.5774,3.59404 0,1.5167 1.44219,4.01163 3.20487,5.54425 6.19723,5.38841 1.46173,9.05243 -9.13126,7.06518 -3.55485,-0.6669 -4.69301,-1.7334 -6.70574,-6.28352 -1.33331,-3.01415 -3.67715,-6.49551 -5.20853,-7.73635 -4.14248,-3.35653 -13.40934,-15.94246 -13.40934,-18.21209 0,-1.13366 1.7913,-2.56628 4.20466,-3.36277 2.31257,-0.76321 5.68085,-3.04444 7.48509,-5.06937 3.68012,-4.13032 5.27219,-4.61619 17.68525,-5.39725 4.8125,-0.30281 10.4375,-1.45589 12.5,-2.56238 2.0625,-1.1065 4.94765,-2.01527 6.41145,-2.01951 3.98274,-0.0112 16.55284,-6.04685 23.20331,-11.14067 16.27614,-12.46648 22.5435,-16.37912 30.88089,-19.27858 5.00624,-1.74099 9.75521,-3.98966 10.55329,-4.99705 1.13832,-1.43686 2.93281,-1.62621 8.32606,-0.87854 3.78125,0.52419 7.05999,0.47327 7.28609,-0.11312 1.09365,-2.83658 4.95775,-6.40554 6.1425,-5.67334 0.77243,0.4774 1.05722,2.88364 0.67687,5.71928 -0.54296,4.04812 -0.19794,5.18156 1.99399,6.55043 3.24351,2.02563 3.31345,3.26717 0.37166,6.59838 -3.77471,4.2744 -5.27647,11.32025 -3.08092,14.45484 1.64762,2.35231 1.64365,2.89357 -0.035,4.76475 -2.62335,2.92423 -2.25909,11.26866 0.53056,12.15406 1.17732,0.37366 3.01561,2.01484 4.08507,3.64704 1.06945,1.6322 3.65103,3.34245 5.73683,3.80057 4.04064,0.88747 4.40539,1.48031 2.63329,4.27996 -0.66839,1.05595 -0.63743,3.04199 0.0768,4.92035 1.09661,2.88433 0.31098,4.02042 -9.32477,13.48432 -8.01976,7.87673 -18.00562,15.27417 -41.98736,31.10382 -37.04082,24.44951 -43.85556,27.87399 -43.85556,22.03785 z m 29.55407,-59.58296 c 0.39909,-1.04002 0.0312,-2.72752 -0.81728,-3.75 -1.02804,-1.23873 -1.08664,-1.85909 -0.17559,-1.85909 0.75202,0 1.83852,-1.82812 2.41444,-4.0625 0.77877,-3.02139 1.82905,-4.15219 4.09825,-4.41244 7.65071,-0.87748 8.67611,-1.48566 8.67611,-5.14582 0,-4.32271 -1.65843,-5.78904 -7.79864,-6.89529 -4.4003,-0.79279 -5.02835,-0.47595 -10.73845,5.41726 -3.33565,3.44263 -7.56064,6.82801 -9.38886,7.52312 -4.60091,1.74926 -4.23358,5.33281 1.09261,10.65901 4.77549,4.77549 11.27559,6.07461 12.63741,2.52575 z m 0.44593,-18.10909 c 0,-0.6875 0.5625,-1.25 1.25,-1.25 0.6875,0 1.25,0.5625 1.25,1.25 0,0.6875 -0.5625,1.25 -1.25,1.25 -0.6875,0 -1.25,-0.5625 -1.25,-1.25 z m 24.70917,-13.13778 c 0.18379,-1.36797 -0.79231,-4.31534 -2.16912,-6.54972 -3.4967,-5.67463 -8.22233,-5.55725 -12.91238,0.32072 l -3.49732,4.38317 3.49732,1.39978 c 9.82442,3.93217 14.59417,4.07324 15.0815,0.44605 z M 349.36965,671.78314 c -1.66671,-1.79168 -4.3389,-3.76282 -5.9382,-4.38029 -2.44709,-0.94479 -2.8432,-1.86455 -2.5,-5.80488 l 0.40781,-4.6822 -5.3125,-0.38438 c -4.6532,-0.33666 -5.3125,-0.0651 -5.3125,2.1875 0,1.41454 -1.16264,3.73452 -2.58364,5.15552 -2.0538,2.0538 -2.27876,2.95101 -1.09695,4.375 1.22551,1.47665 0.91848,1.79136 -1.74767,1.79136 -1.7789,0 -5.83048,-0.8814 -9.0035,-1.95868 -3.17303,-1.07726 -7.27082,-1.86141 -9.10619,-1.74253 -5.61455,0.36362 -6.10791,0.0973 -8.27409,-4.46767 -1.29385,-2.72658 -5.38024,-6.80697 -10.67026,-10.65461 -6.21703,-4.52189 -9.34009,-7.8196 -11.36306,-11.9985 -1.53434,-3.16951 -3.82807,-6.0343 -5.09718,-6.36617 -1.37244,-0.3589 -2.30746,-1.73214 -2.30746,-3.38889 0,-1.53201 -1.125,-3.80359 -2.5,-5.04795 -1.375,-1.24436 -2.5,-3.20224 -2.5,-4.35084 0,-1.14861 -1.46192,-3.45205 -3.24874,-5.11877 -8.07747,-7.53461 -10.26529,-16.99473 -10.67424,-46.15539 -0.19505,-13.90809 -0.0591,-14.6998 4.18394,-24.375 l 4.38553,-10 6.11426,-0.625 c 5.85501,-0.5985 6.13106,-0.79991 6.51064,-4.75034 0.49737,-5.17641 2.3165,-5.894 17.59982,-6.94259 12.85948,-0.88227 15.12879,-1.92871 15.12879,-6.97626 0,-6.93501 10.93177,-13.39605 19.99082,-11.81525 10.07912,1.75882 12.53105,6.48659 6.52209,12.57579 -1.9179,1.9435 -4.71807,5.54885 -6.22261,8.01188 l -2.73551,4.47821 2.7851,5.52179 c 2.66613,5.28588 3.00827,5.51203 8.00885,5.29392 4.88891,-0.21325 5.2094,-0.0217 5,2.98849 -0.17358,2.4952 0.55596,3.48347 3.25381,4.40786 4.85455,1.66334 9.64745,-1.53539 9.64745,-6.43857 0,-4.06889 2.72154,-5.7433 6.25837,-3.85044 1.28,0.68502 3.34863,1.24897 4.59695,1.25321 1.24833,0.004 3.95718,0.90406 6.01968,1.99961 2.91258,1.54709 5.84519,1.82367 13.13228,1.2385 7.59786,-0.61011 10.68246,-0.27816 16.21866,1.74539 3.76001,1.37434 7.79357,2.19499 8.96347,1.82369 5.7476,-1.82423 18.56059,8.12842 18.56059,14.41717 0,2.57889 0.9535,4.33506 3.12683,5.75908 6.50144,4.25991 5.91171,13.4007 -1.22686,19.01588 -1.73248,1.36278 -3.14997,3.16129 -3.14997,3.99669 0,1.66944 -5.06655,7.44024 -6.5625,7.47469 -0.51563,0.0125 -0.9375,-0.75354 -0.9375,-1.70094 0,-0.94739 -1.26563,-2.58097 -2.8125,-3.63017 l -2.8125,-1.90765 3.61946,-1.40807 3.61946,-1.40806 -2.49569,-2.77426 c -1.37263,-1.52584 -2.83337,-3.73321 -3.24607,-4.90528 -0.4127,-1.17206 -2.88713,-3.3032 -5.49876,-4.73586 -2.61162,-1.43265 -6.47733,-3.70191 -8.59046,-5.0428 -8.27517,-5.25095 -28.6098,-3.0773 -43.65794,4.6668 -7.92469,4.0782 -8.37671,4.50745 -7.40724,7.03386 0.57894,1.50872 2.319,2.08403 6.30321,2.08403 4.03352,0 6.08451,0.69165 7.67877,2.58947 1.19638,1.42422 4.00338,3.36427 6.23776,4.31122 4.55659,1.93115 5.35312,4.97022 1.5625,5.9615 -4.33021,1.13237 -3.054,4.63781 1.68847,4.63781 5.7997,0 11.87399,2.31392 13.35918,5.08903 0.68468,1.27933 3.4853,2.92934 6.22361,3.6667 5.01386,1.35008 5.91504,2.82835 3.7811,6.20235 -0.69972,1.10635 -0.70719,2.3779 -0.0189,3.20732 0.6273,0.75584 1.50523,4.7122 1.95098,8.79192 0.44576,4.07973 1.59918,8.68082 2.56318,10.22466 3.0375,4.86458 -0.23008,11.36381 -4.86019,9.66692 -2.25541,-0.82659 -5.16786,1.36257 -4.10365,3.08452 0.54695,0.88499 2.29588,1.15727 4.42694,0.68921 2.85316,-0.62666 3.68081,-0.27584 4.35414,1.84561 1.37737,4.33975 -12.91014,17.58304 -22.77688,21.11218 -6.84861,2.44962 -8.39737,2.60236 -12.85262,1.26753 -3.86263,-1.15726 -5.41238,-1.171 -6.52555,-0.0579 -2.05266,2.05267 -2.63294,1.88037 -6.05449,-1.79775 z m -55.3614,-108.30936 c 5.69205,-2.49074 10.45601,-6.07857 10.45601,-7.87462 0,-0.90975 -1.6389,-3.44846 -3.64201,-5.64159 -2.80022,-3.06584 -4.75043,-4.02266 -8.4375,-4.13965 l -4.79549,-0.15215 -0.37684,7.99334 c -0.55495,11.77117 0.11463,12.73824 6.79583,9.81467 z m 78.89351,-9.98041 c 2.76185,-2.22489 1.69094,-3.03594 -4.00871,-3.03594 -5.4609,0 -7.95064,1.91868 -6.18884,4.76933 0.84617,1.36915 7.81714,0.18421 10.19755,-1.73339 z m -9.6875,-12.2026 c 0,-0.6875 -0.5625,-1.25 -1.25,-1.25 -0.6875,0 -1.25,0.5625 -1.25,1.25 0,0.6875 0.5625,1.25 1.25,1.25 0.6875,0 1.25,-0.5625 1.25,-1.25 z m 30,-9.92622 c 0,-3.52388 2.00999,-4.21887 4.94166,-1.70869 3.52786,3.02065 3.20674,4.13491 -1.19166,4.13491 -2.87866,0 -3.75,-0.56375 -3.75,-2.42622 z m -170.5167,-8.3673 c -1.3552,-3.53159 14.39961,-16.46094 18.41394,-15.11161 1.57526,0.5295 -14.31639,17.15513 -16.39776,17.15513 -0.67761,0 -1.58489,-0.91959 -2.01618,-2.04352 z m 168.6417,0.12338 c -2.0625,-0.94441 -5.27317,-1.74247 -7.13484,-1.77349 -3.58976,-0.0597 -30.93502,-13.55006 -36.56306,-18.0377 -2.3696,-1.88946 -3.54633,-4.24785 -4.0709,-8.15887 -0.71796,-5.35279 -0.65685,-5.4765 2.26546,-4.58624 1.65184,0.50323 5.3093,1.40224 8.12769,1.99779 5.59872,1.18309 18.71164,6.9214 21.84039,9.55754 1.08061,0.91046 5.87972,3.5607 10.66471,5.88941 4.78497,2.32871 10.51021,5.75725 12.72275,7.61898 4.54039,3.82047 5.61926,8.83788 1.628,7.57111 -1.31715,-0.41805 -2.75659,-0.1747 -3.19878,0.54076 -0.98802,1.59866 -1.56096,1.54218 -6.28142,-0.61929 z M 274.033,514.00484 c -2.61713,-2.89188 -2.67404,-9.43021 -0.1045,-11.99978 2.36097,-2.36098 6.82098,-2.54908 9.5268,-0.40179 3.21307,2.54986 9.76865,12.41046 9.0374,13.59366 -0.37182,0.60161 -4.2119,1.09384 -8.53353,1.09384 -6.02472,0 -8.34002,-0.5332 -9.92622,-2.28593 z m -71.29372,-52.47133 c -0.38222,-0.61844 0.11291,-2.19168 1.10027,-3.49609 0.98736,-1.30441 1.81309,-2.86713 1.83496,-3.4727 0.0663,-1.83551 -8.24036,0.1085 -15.02528,3.51635 -3.51471,1.76534 -6.90666,3.2097 -7.53767,3.2097 -0.63102,0 -1.1473,-2.48816 -1.1473,-5.52925 0,-4.41091 0.91577,-6.74954 4.52772,-11.5625 6.57034,-8.75506 11.30273,-13.5979 20.59291,-21.07349 l 8.24563,-6.63506 12.37937,1.10556 c 6.80865,0.60805 13.94031,1.12562 15.84812,1.15015 2.84506,0.0366 3.60454,0.72353 4.22395,3.8206 0.41536,2.0768 1.24505,4.07875 1.84375,4.44878 0.5987,0.37001 1.08855,2.91672 1.08855,5.65936 0,2.74264 1.059,7.1785 2.35335,9.85747 1.92337,3.98096 2.07164,5.28309 0.81149,7.12713 -0.84802,1.24094 -1.92623,3.83696 -2.39604,5.76895 l -0.85418,3.5127 -3.80322,-3.2002 c -3.19395,-2.68754 -5.05638,-3.2002 -11.62586,-3.2002 -8.29499,0 -20.17038,3.27582 -27.45372,7.5731 -2.37153,1.39924 -4.62459,2.03807 -5.0068,1.41964 z m 135.06244,-9.06874 c -2.49212,-3.558 -1.67436,-4.65186 6.95349,-9.3012 3.62123,-1.95139 8.54034,-5.13981 10.93135,-7.08539 5.49714,-4.47302 7.5277,-4.49076 7.5277,-0.0657 0,2.29282 -1.27335,4.58899 -3.75,6.76221 -2.31234,2.02904 -3.75,4.50358 -3.75,6.45458 0,3.96395 -0.59958,4.31636 -9.02893,5.30707 -6.22627,0.73178 -7.05556,0.5384 -8.88361,-2.07151 z m -56.46246,-38.75879 c -2.0625,-1.32113 -5.28243,-2.40501 -7.1554,-2.40863 -5.22496,-0.0101 -7.36549,-5.11946 -5.37891,-12.83932 0.84321,-3.27675 1.75838,-6.112 2.03371,-6.30056 0.27532,-0.18855 2.57245,-1.86695 5.1047,-3.72976 2.53225,-1.86282 5.08822,-3.38694 5.67992,-3.38694 0.59172,0 3.1333,-2.17125 5.64799,-4.825 5.16664,-5.45235 12.4619,-8.42947 31.16461,-12.71793 12.87783,-2.95284 18.52838,-2.63609 18.52838,1.03861 0,4.02805 -3.83197,7.7439 -11.85343,11.49423 -8.97681,4.197 -14.41386,10.23027 -12.26697,13.61216 1.04789,1.65067 0.29735,2.598 -4.07854,5.14793 -2.9495,1.71875 -9.31257,6.35937 -14.14017,10.3125 -4.82759,3.95312 -8.94809,7.14638 -9.15667,7.09613 -0.20857,-0.0503 -2.06672,-1.1723 -4.12922,-2.49342 z m 87.53876,-29.85249 c -0.80906,-1.30909 4.13109,-4.43453 5.24643,-3.3192 0.82795,0.82795 -2.02043,4.50648 -3.48948,4.50648 -0.56274,0 -1.35337,-0.53428 -1.75695,-1.18728 z"
         id="path4202"
         inkscape:connector-curvature="0" />
      <path
         style="fill:#575757"
         d="m 440.33157,759.24142 c -1.33293,-1.33294 0.37188,-2.95065 3.10951,-2.95065 2.15098,0 2.32088,0.31136 1.02318,1.875 -1.68032,2.02466 -2.87319,2.33515 -4.13269,1.07565 z m 30.96889,-24.26343 c -1.18776,-1.92184 0.43919,-3.16183 2.04355,-1.55747 0.89772,0.89773 0.91929,1.5969 0.0655,2.12455 -0.6999,0.43256 -1.64899,0.17738 -2.10909,-0.56708 z m -159.3362,-86.4013 c 0,-1.49273 -0.81373,-3.61322 -1.80828,-4.71218 -1.36711,-1.51065 -1.5433,-3.17298 -0.72216,-6.81377 1.53415,-6.80224 2.76149,-7.56176 11.68688,-7.23222 6.58894,0.24328 8.63145,-0.20986 12.36427,-2.74302 2.45932,-1.66894 5.79511,-3.43519 7.41289,-3.92502 1.61777,-0.48981 4.45845,-2.31029 6.31261,-4.0455 2.84734,-2.66466 4.13583,-3.03266 8.29157,-2.36814 3.58483,0.57324 5.34076,0.28021 6.46933,-1.07963 1.58368,-1.90823 8.74289,-2.64622 8.74289,-0.90124 0,0.53085 -1.69915,3.02655 -3.77587,5.54599 -2.5353,3.07575 -3.68695,5.7479 -3.5052,8.13307 0.14886,1.95375 -0.1145,4.17558 -0.58537,4.93738 -0.47082,0.7618 -0.0185,2.0802 1.0052,2.92978 1.02368,0.84958 1.86124,2.31957 1.86124,3.26663 0,2.57819 2.1093,2.07736 4.27538,-1.01514 2.11131,-3.01431 2.77241,-2.85705 3.41828,0.81316 0.34114,1.93849 -0.48358,2.62138 -3.94366,3.26544 -2.40625,0.4479 -5.9328,1.44451 -7.83679,2.21471 -2.05985,0.83326 -6.41935,1.09124 -10.76482,0.63705 -4.84035,-0.50591 -7.59691,-0.28783 -8.17449,0.6467 -0.47929,0.77552 -2.11934,1.41003 -3.64454,1.41003 -1.5252,0 -4.074,0.91119 -5.66399,2.02486 -3.58533,2.51126 -13.67766,1.70083 -15.85216,-1.27297 -1.97258,-2.69767 -3.06321,-2.52031 -3.06321,0.49811 0,1.375 -0.5625,2.5 -1.25,2.5 -0.6875,0 -1.25,-1.22134 -1.25,-2.71408 z m 63.125,-4.78592 c -0.4249,-0.6875 -0.17685,-1.25 0.55122,-1.25 0.72808,0 1.32378,0.5625 1.32378,1.25 0,0.6875 -0.24805,1.25 -0.55122,1.25 -0.30318,0 -0.89888,-0.5625 -1.32378,-1.25 z m -78.7786,-3.79627 c -0.54244,-0.87768 -2.46664,-1.13109 -4.99168,-0.65739 -5.03179,0.94396 -8.10472,-1.63239 -8.10472,-6.79503 0,-2.42622 -1.1518,-4.50028 -3.5948,-6.47321 -4.37807,-3.53565 -6.65209,-7.68025 -5.64865,-10.29517 0.49349,-1.28602 -0.25155,-2.36559 -2.19197,-3.17623 -1.61678,-0.67542 -4.60258,-2.62509 -6.63512,-4.33259 -3.41141,-2.86583 -3.50751,-3.16246 -1.25,-3.85788 7.20613,-2.21988 8.6651,-3.74657 9.58889,-10.03392 1.1992,-8.16182 -1.41478,-14.33231 -6.07154,-14.33231 -1.75224,0 -4.8715,-1.20026 -6.9317,-2.66725 -3.42331,-2.43761 -3.67751,-3.11023 -2.95265,-7.8125 0.43624,-2.82989 0.8081,-6.83275 0.82638,-8.89525 0.0464,-5.23089 3.25873,-16.2764 5.20296,-17.88996 2.63455,-2.18649 4.84483,0.28623 6.05736,6.77664 0.7252,3.88181 2.28787,7.14484 4.3273,9.03591 2.17805,2.01961 2.89709,3.614 2.26331,5.01868 -0.51087,1.1323 -0.88743,5.64199 -0.8368,10.02153 0.0729,6.30298 0.63072,8.50145 2.67619,10.54693 2.27313,2.27311 2.95111,2.38772 5.6333,0.95226 1.67704,-0.89753 3.64478,-1.26375 4.37275,-0.81383 0.72799,0.44992 2.52113,-0.3795 3.98476,-1.84314 1.58869,-1.58868 3.62395,-2.40938 5.05017,-2.03642 1.31393,0.34361 3.6293,-0.37961 5.14525,-1.60714 2.12637,-1.72183 3.25405,-1.921 4.9346,-0.87147 2.69116,1.68066 8.31576,-0.0836 10.28914,-3.22749 1.82843,-2.91293 -0.35899,-6.41677 -4.36679,-6.99477 -6.4801,-0.93456 -7.69634,-4.47132 -3.5433,-10.30374 2.71133,-3.80771 2.35385,-6.13899 -0.94136,-6.13899 -1.54248,0 -1.81416,-0.92824 -1.26397,-4.31861 0.86104,-5.30599 -0.95665,-6.17764 -13.04159,-6.254 -8.0325,-0.0507 -8.43476,-0.20723 -12.8125,-4.98416 -4.33137,-4.72635 -5.90891,-9.33119 -3.26962,-9.54404 0.6875,-0.0555 8.70312,-0.14838 17.8125,-0.20654 l 16.5625,-0.10575 1.76441,3.64404 c 0.97043,2.00422 2.2374,4.48779 2.81549,5.51904 0.57809,1.03125 1.57525,3.07997 2.21591,4.55273 0.65966,1.51643 3.63995,3.62299 6.87201,4.85731 3.13895,1.19878 5.70718,2.63388 5.70718,3.18911 0,0.55523 1.68823,2.00676 3.7516,3.22563 5.33124,3.14924 5.96933,6.33076 2.00664,10.00518 -5.67359,5.26083 -3.42878,7.07585 4.51185,3.64801 2.2577,-0.97461 8.32366,-2.39782 13.47991,-3.16271 26.27872,-3.8982 30.20497,-5.26904 32.29945,-11.27729 1.5614,-4.47901 1.94894,-4.53896 8.32555,-1.28797 2.69699,1.375 6.14776,2.5 7.6684,2.5 3.31074,0 9.90731,5.2645 10.78049,8.60355 0.43707,1.67138 -0.30364,2.80547 -2.48005,3.79711 -3.07444,1.40081 -6.81761,1.12762 -18.00289,-1.31386 -12.3322,-2.69184 -37.56401,3.26644 -50.15045,11.84262 -9.75273,6.64536 -21.41749,13.3206 -23.27726,13.3206 -2.23607,0 -13.46062,8.49802 -15.66178,11.85742 -1.1008,1.68004 -2.00146,4.46087 -2.00146,6.17962 0,1.89486 -1.03287,3.67779 -2.62389,4.52926 -2.19922,1.177 -2.49428,2.14504 -1.82315,5.98148 1.49388,8.53941 1.41383,24.33812 -0.12591,24.85146 -0.79637,0.2655 -1.84516,-0.15998 -2.33065,-0.94551 z m -18.0964,-41.20373 c 0,-0.6875 -0.5625,-1.25 -1.25,-1.25 -0.6875,0 -1.25,0.5625 -1.25,1.25 0,0.6875 0.5625,1.25 1.25,1.25 0.6875,0 1.25,-0.5625 1.25,-1.25 z m 17.21354,-11.01562 c 0.27213,-0.81642 -0.39583,-1.48438 -1.48438,-1.48438 -1.08854,0 -1.97916,0.89063 -1.97916,1.97916 0,2.20742 2.69095,1.82299 3.46354,-0.49478 z m 45.28646,15.04342 c 0,-0.53471 1.05684,-1.87709 2.34852,-2.98306 1.29169,-1.10598 2.60647,-2.77786 2.92173,-3.7153 0.48324,-1.43694 0.89937,-1.43519 2.65147,0.0112 2.92965,2.41835 2.58144,3.90945 -0.91298,3.90945 -1.6452,0 -3.31504,0.84375 -3.71078,1.875 -0.74155,1.93233 -3.29796,2.63213 -3.29796,0.90266 z m -4.375,-6.5278 c 0.4249,-0.6875 1.0206,-1.25 1.32378,-1.25 0.30317,0 0.55122,0.5625 0.55122,1.25 0,0.6875 -0.5957,1.25 -1.32378,1.25 -0.72807,0 -0.97612,-0.5625 -0.55122,-1.25 z m -23.4375,-80.10012 c -3.06398,-1.78461 -2.73745,-6.87292 0.59064,-9.20401 3.46028,-2.42367 9.71871,-2.51281 12.90386,-0.18377 2.37617,1.7375 2.37514,1.80099 -0.0736,4.54752 -1.36586,1.53198 -4.29346,3.55153 -6.50574,4.48791 -4.70204,1.99014 -4.15139,1.96209 -6.91515,0.35235 z m 55.9375,-6.14988 c -1.0463,-1.69295 0.36554,-3.75 2.57378,-3.75 0.99067,0 1.80122,1.125 1.80122,2.5 0,2.58789 -3.01564,3.4495 -4.375,1.25 z m -9.375,-3.75 c 0,-0.6875 1.0918,-1.25 2.42622,-1.25 1.33443,0 2.77388,0.5625 3.19878,1.25 0.43815,0.70895 -0.61203,1.25 -2.42622,1.25 -1.75933,0 -3.19878,-0.5625 -3.19878,-1.25 z M 245.88584,454.03046 c -4.72055,-3.1675 -17.16999,-4.16129 -21.43875,-1.71135 -3.31366,1.90177 -3.70464,1.88464 -6.08169,-0.26655 -3.38517,-3.06355 -12.77287,-3.14064 -20.53458,-0.16863 -5.49484,2.104 -6.17853,2.13059 -7.99819,0.31093 -1.71067,-1.71068 -1.7616,-2.54053 -0.36316,-5.91665 2.02631,-4.89198 8.24209,-11.23303 11.02844,-11.25073 1.15024,-0.007 4.90385,-2.25132 8.34135,-4.98671 5.48473,-4.36446 7.05309,-4.97505 12.8089,-4.98671 5.78942,-0.0113 7.14591,0.51704 11.5625,4.50716 2.75198,2.48625 5.0036,5.19297 5.0036,6.01492 0,1.58753 6.60544,6.96463 8.55562,6.96463 2.23701,0 4.94033,5.76545 4.29245,9.15463 -0.83869,4.38732 -1.60371,4.73241 -5.17649,2.33506 z m 47.98043,-49.92719 c 0.50571,-1.20313 1.19397,-3.45313 1.52945,-5 0.53039,-2.44552 0.10163,-2.8125 -3.28574,-2.8125 -4.78531,0 -4.8322,-1.2916 -0.34035,-9.375 4.59064,-8.26115 13.39765,-13.49531 20.81963,-12.37346 7.80489,1.17972 7.91565,2.37484 0.84814,9.15111 -3.56023,3.41352 -6.47314,7.25382 -6.47314,8.53402 0,1.2802 -1.42034,4.25279 -3.1563,6.60575 -4.47101,6.06012 -11.93742,10.01806 -9.94169,5.27008 z"
         id="path4200"
         inkscape:connector-curvature="0" />
    </g>
  </g>
</svg>
